<?xml version="1.0" encoding="UTF-8" standalone="no"?>
<!-- Uploaded to: SVG Repo, www.svgrepo.com, Generator: SVG Repo Mixer Tools -->

<svg
   height="374.2576"
   width="800.00458"
   version="1.1"
   id="Layer_1"
   viewBox="0 0 510.73992 238.934"
   xml:space="preserve"
   sodipodi:docname="eierkarton.svg"
   inkscape:version="1.4.3 (1:1.4.3+202512261035+0d15f75042)"
   xmlns:inkscape="http://www.inkscape.org/namespaces/inkscape"
   xmlns:sodipodi="http://sodipodi.sourceforge.net/DTD/sodipodi-0.dtd"
   xmlns="http://www.w3.org/2000/svg"
   xmlns:svg="http://www.w3.org/2000/svg"><defs
   id="defs16" /><sodipodi:namedview
   id="namedview16"
   pagecolor="#ffffff"
   bordercolor="#000000"
   borderopacity="0.25"
   inkscape:showpageshadow="2"
   inkscape:pageopacity="0.0"
   inkscape:pagecheckerboard="0"
   inkscape:deskcolor="#d1d1d1"
   inkscape:zoom="0.69442689"
   inkscape:cx="152.64386"
   inkscape:cy="42.481074"
   inkscape:window-width="2560"
   inkscape:window-height="1531"
   inkscape:window-x="0"
   inkscape:window-y="0"
   inkscape:window-maximized="1"
   inkscape:current-layer="g16" />
<g
   transform="translate(1,-270.155)"
   id="g16">
	<g
   id="g3"
   style="fill:#f6d32d">
		<path
   style="fill:#f6d32d"
   d="m 236.227,437.409 c 5.973,1.707 12.8,3.413 18.773,3.413 5.973,0 12.8,-0.853 18.773,-3.413 l 40.96,-64.853 c -2.56,-52.907 -28.16,-93.867 -59.733,-93.867 -31.573,0 -57.173,41.813 -59.733,93.867 z"
   id="path1" />
		<path
   style="fill:#f6d32d"
   d="m 398.36,437.409 c 5.973,1.707 11.947,3.413 18.773,3.413 6.826,0 12.8,-0.853 18.773,-3.413 l 40.96,-64.853 c -2.56,-52.907 -28.16,-93.867 -59.733,-93.867 -31.573,0 -57.173,41.813 -59.733,93.867 z"
   id="path2" />
		<path
   style="fill:#f6d32d"
   d="m 74.093,437.409 c 5.973,2.56 11.947,3.413 18.773,3.413 6.826,0 12.8,-0.853 18.773,-3.413 l 40.96,-64.853 c -2.56,-52.907 -28.16,-93.867 -59.733,-93.867 -31.573,0 -57.173,41.813 -59.733,93.867 z"
   id="path3" />
	</g>
	<polygon
   style="fill:#b5835a"
   points="357.4,432.289 314.733,432.289 280.6,500.555 229.4,500.555 195.267,432.289 152.6,432.289 118.467,500.555 7.533,500.555 7.533,372.555 33.133,372.555 75.8,440.822 109.933,440.822 152.6,372.555 195.267,372.555 237.933,440.822 272.067,440.822 314.733,372.555 357.4,372.555 400.067,440.822 434.2,440.822 476.867,372.555 502.467,372.555 502.467,500.555 391.533,500.555 "
   id="polygon3" />
	<path
   d="M 502.467,509.089 H 391.533 c -3.413,0 -5.973,-1.707 -7.68,-5.12 L 352.28,440.822 h -32.427 l -31.573,63.147 c -1.707,3.413 -4.267,5.12 -7.68,5.12 h -51.2 c -3.413,0 -5.973,-1.707 -7.68,-5.12 L 190.147,440.822 H 157.72 l -31.573,63.147 c -1.707,3.413 -4.267,5.12 -7.68,5.12 H 7.533 c -5.12,0 -8.533,-3.413 -8.533,-8.533 v -128 c 0,-5.12 3.413,-8.533 8.533,-8.533 h 25.6 c 2.56,0 5.973,1.707 6.827,4.267 l 40.96,64 h 24.747 l 40.107,-64 c 1.707,-2.56 4.267,-4.267 6.827,-4.267 h 42.667 c 2.56,0 5.973,1.707 6.827,4.267 l 40.107,64 h 24.747 l 40.107,-64 c 1.707,-2.56 4.267,-4.267 6.827,-4.267 h 42.667 c 2.56,0 5.973,1.707 6.827,4.267 l 40.107,64 h 24.747 l 40.107,-64 c 1.707,-2.56 4.267,-4.267 6.827,-4.267 h 25.6 c 5.12,0 8.533,3.413 8.533,8.533 v 128 c 1.702,5.119 -1.711,8.533 -6.831,8.533 z M 396.653,492.022 h 97.28 V 381.089 h -11.947 l -40.107,64 c -1.707,2.56 -5.12,4.267 -7.68,4.267 h -34.133 c -2.56,0 -5.973,-1.707 -6.827,-4.267 l -40.96,-64 H 319 l -40.107,64 c -0.853,2.56 -4.267,4.267 -6.827,4.267 h -34.133 c -2.56,0 -5.973,-1.707 -6.827,-4.267 l -40.96,-64 h -33.28 l -40.107,64 c -0.853,2.56 -4.267,4.267 -6.827,4.267 H 75.8 c -2.56,0 -5.973,-1.707 -6.827,-4.267 l -40.96,-64 H 16.067 v 110.933 h 97.28 l 31.573,-63.147 c 1.707,-2.56 4.267,-5.12 7.68,-5.12 h 42.667 c 3.413,0 5.973,1.707 7.68,5.12 l 31.573,63.147 h 40.96 l 31.573,-63.147 c 1.707,-2.56 4.267,-5.12 7.68,-5.12 H 357.4 c 3.413,0 5.973,1.707 7.68,5.12 z"
   id="path4" />
	<path
   d="m 255,449.355 c -7.68,0 -14.507,-0.853 -22.187,-3.413 l -2.56,-0.853 -43.52,-69.973 v -2.56 c 2.56,-58.027 31.573,-102.4 68.267,-102.4 35.84,0 65.707,44.373 68.267,102.4 v 2.56 l -43.52,69.973 -2.56,0.853 c -7.68,2.56 -14.507,3.413 -22.187,3.413 z m -13.653,-18.773 c 8.533,2.56 17.92,2.56 27.307,0 l 37.547,-59.733 c -2.56,-46.08 -25.6,-83.627 -51.2,-83.627 -25.6,0 -47.787,37.547 -51.2,83.627 z"
   id="path5" />
	<path
   d="m 417.133,449.355 c -7.68,0 -14.507,-0.853 -21.333,-3.413 l -2.56,-0.853 -44.373,-69.973 v -2.56 c 2.56,-58.027 31.573,-102.4 68.267,-102.4 35.84,0 65.707,44.373 68.267,102.4 v 2.56 l -43.52,69.973 -2.56,0.853 c -7.681,2.56 -14.508,3.413 -22.188,3.413 z M 403.48,430.582 c 8.533,2.56 17.92,2.56 27.307,0 l 37.547,-59.733 c -2.56,-46.08 -25.6,-83.627 -51.2,-83.627 -25.6,0 -47.787,37.547 -51.2,83.627 z"
   id="path6" />
	<path
   d="m 92.867,449.355 c -7.68,0 -14.507,-0.853 -22.187,-3.413 L 68.12,445.089 24.6,375.115 v -2.56 c 2.56,-58.027 31.573,-102.4 68.267,-102.4 35.84,0 65.707,44.373 68.267,102.4 v 2.56 l -43.52,69.973 -2.56,0.853 c -7.681,2.561 -14.507,3.414 -22.187,3.414 z M 79.213,430.582 c 8.533,2.56 17.92,2.56 27.307,0 l 37.547,-59.733 c -2.56,-46.08 -25.6,-83.627 -51.2,-83.627 -25.6,0 -47.787,37.547 -51.2,83.627 z"
   id="path7" />
	<path
   d="m 67.267,372.555 h -0.853 c -5.12,0 -8.533,-4.267 -7.68,-9.387 4.267,-34.133 21.333,-58.88 34.133,-58.88 5.12,0 8.533,3.413 8.533,8.533 0,4.267 -3.413,7.68 -6.827,8.533 -3.413,2.56 -15.36,17.067 -18.773,44.373 -0.853,4.268 -4.267,6.828 -8.533,6.828 z"
   id="path8" />
	<path
   d="m 229.4,372.555 h -0.853 c -4.267,-0.853 -7.68,-5.12 -7.68,-9.387 4.267,-33.28 21.333,-58.88 34.133,-58.88 5.12,0 8.533,3.413 8.533,8.533 0,4.267 -3.413,7.68 -6.827,8.533 -2.56,1.707 -15.36,14.507 -18.773,43.52 -0.853,4.268 -4.266,7.681 -8.533,7.681 z"
   id="path9" />
	<path
   d="m 391.533,372.555 h -0.853 c -4.267,-0.853 -7.68,-5.12 -7.68,-9.387 4.267,-33.28 21.333,-58.88 34.133,-58.88 5.12,0 8.533,3.413 8.533,8.533 0,4.267 -3.413,7.68 -6.827,8.533 -2.56,1.707 -15.36,14.507 -18.773,43.52 -0.853,4.268 -4.266,7.681 -8.533,7.681 z m 27.307,-51.2 z"
   id="path10" />
	
	
	
	
	
	
</g>
</svg>
