<?xml version="1.0" encoding="UTF-8" standalone="no"?>
<!-- Created with Inkscape (http://www.inkscape.org/) -->

<svg
   version="1.1"
   id="svg1"
   width="64"
   height="64"
   viewBox="0 0 0 0"
   sodipodi:docname="chess-pieces.svg"
   inkscape:version="1.4.2 (1:1.4.2+202505120737+ebf0e940d0)"
   inkscape:export-batch-path="/home/jf/repos/school/monorepo/inf/java/engine-pi/engine-pi-demos/misc/chess-figures"
   inkscape:export-batch-name="chess-pieces"
   xmlns:inkscape="http://www.inkscape.org/namespaces/inkscape"
   xmlns:sodipodi="http://sodipodi.sourceforge.net/DTD/sodipodi-0.dtd"
   xmlns="http://www.w3.org/2000/svg"
   xmlns:svg="http://www.w3.org/2000/svg"
   xmlns:rdf="http://www.w3.org/1999/02/22-rdf-syntax-ns#"
   xmlns:cc="http://creativecommons.org/ns#"
   xmlns:dc="http://purl.org/dc/elements/1.1/">
  <title
     id="title1">Chess pieces. King, Queen, bishop, knight, rook and pawn and bishop</title>
  <defs
     id="defs1" />
  <sodipodi:namedview
     id="namedview1"
     pagecolor="#ffffff"
     bordercolor="#000000"
     borderopacity="0.25"
     inkscape:showpageshadow="2"
     inkscape:pageopacity="0.0"
     inkscape:pagecheckerboard="0"
     inkscape:deskcolor="#d1d1d1"
     inkscape:zoom="1.46568"
     inkscape:cx="-157.26489"
     inkscape:cy="-79.826429"
     inkscape:window-width="1920"
     inkscape:window-height="1531"
     inkscape:window-x="20"
     inkscape:window-y="20"
     inkscape:window-maximized="0"
     inkscape:current-layer="svg1"
     showgrid="true">
    <inkscape:page
       x="0"
       y="0"
       id="page1"
       width="64"
       height="64"
       margin="0"
       bleed="0"
       inkscape:export-filename="Page 2.png"
       inkscape:export-xdpi="96"
       inkscape:export-ydpi="96"
       inkscape:label="sdsdf" />
    <inkscape:grid
       id="grid18"
       units="px"
       originx="-82.486382"
       originy="-273.95117"
       spacingx="64"
       spacingy="64"
       empcolor="#0099e5"
       empopacity="0.30196078"
       color="#0099e5"
       opacity="0.14901961"
       empspacing="5"
       enabled="true"
       visible="true" />
    <inkscape:page
       x="-127.92368"
       y="-0.16488647"
       width="63.923672"
       height="64.164894"
       id="page19"
       margin="0"
       bleed="0" />
    <inkscape:page
       x="-64"
       y="0"
       width="64"
       height="64"
       id="page20"
       margin="0"
       bleed="0" />
  </sodipodi:namedview>
  <g
     id="g16"
     inkscape:label="Rook (black)"
     transform="translate(-63.933717,-2.3533119)">
    <path
       id="path3"
       d="m 51.515987,56.812727 h -37.25604 v -3.31843 c 0,-3.71773 3.02331,-6.74104 6.74104,-6.74104 h 23.77404 c 3.71772,0 6.74096,3.02331 6.74096,6.74104 z m -29.43663,-30.69531 c 0.27938,0.0387 0.56387,0.061 0.85371,0.061 h 19.3329 c 0.37861,0 0.74666,-0.0363 1.10705,-0.10187 l 2.5403,19.98001 c -0.37078,-0.0577 -0.75202,-0.0861 -1.13829,-0.0861 h -23.77404 c -0.39155,0 -0.77534,0.0288 -1.14867,0.0888 z m -4.4854,-6.06518 -0.60565,-5.973526 c -0.0734,-0.722267 0.16449,-1.445605 0.65262,-1.983597 0.48566,-0.540216 1.18007,-0.84811 1.90588,-0.84811 h 3.27666 c 0.55859,0 1.04944,0.373083 1.1982,0.911074 l 1.28456,4.631029 2.53766,-0.0916 0.23504,-5.884281 c 0.0181,-0.43036 0.36806,-0.768005 0.79891,-0.768005 h 7.51119 c 0.41256,0 0.75457,0.311273 0.79372,0.721112 l 0.59527,5.955234 3.02331,-0.0859 0.69705,-4.342498 c 0.0966,-0.607794 0.61348,-1.046148 1.22712,-1.046148 h 2.92673 c 0.72573,0 1.42014,0.307894 1.90844,0.84811 0.48557,0.537992 0.72317,1.26133 0.64999,1.983597 l -0.60302,5.934629 v 0.0387 c 0,2.94502 -2.39401,5.34184 -5.33903,5.34184 h -19.33282 c -2.94502,0 -5.33919,-2.39682 -5.33919,-5.34184 z m 29.1312,26.17374 -2.58726,-20.34319 c 2.45672,-0.79092 4.24253,-3.09378 4.25027,-5.80879 l 0.60063,-5.916335 c 0.0966,-0.943133 -0.21156,-1.885113 -0.84861,-2.590237 -0.63433,-0.70158 -1.54029,-1.104497 -2.48796,-1.104497 h -2.92673 c -0.99999,0 -1.84324,0.718805 -1.99991,1.705451 l -0.59518,3.705038 -1.64496,0.047 -0.52209,-5.233054 c -0.0808,-0.8115186 -0.75968,-1.4249986 -1.57433,-1.4249986 h -7.51119 c -0.85371,0 -1.54821,0.66845 -1.58216,1.5200206 l -0.20628,5.160942 -1.19309,0.042 -1.12007,-4.036996 c -0.24279,-0.874482 -1.04426,-1.485656 -1.95277,-1.485656 h -3.27666 c -0.94511,0 -1.85363,0.402916 -2.48812,1.104497 -0.63433,0.705124 -0.94503,1.647104 -0.84844,2.590237 l 0.60046,5.916338 c 0.008,2.80657 1.91371,5.17124 4.49842,5.88436 l -2.26355,20.27017 c -3.20347,0.86427 -5.56888,3.79347 -5.56888,7.26577 v 4.10168 h 38.82246 v -4.10168 c 0,-3.47494 -2.36789,-6.40678 -5.574,-7.26832"
       style="fill:#231f20;fill-opacity:1;fill-rule:nonzero;stroke:none;stroke-width:0.133333" />
    <path
       id="path4"
       d="m 51.515987,53.494297 v 3.31843 h -37.25604 v -3.31843 c 0,-3.71773 3.02331,-6.74104 6.74104,-6.74104 h 23.77404 c 3.71772,0 6.74096,3.02331 6.74096,6.74104"
       style="fill:#565352;fill-opacity:1;fill-rule:nonzero;stroke:none;stroke-width:0.133333" />
    <path
       id="path5"
       d="m 45.913317,46.056207 c -0.37078,-0.0577 -0.75202,-0.0861 -1.13829,-0.0861 h -23.77404 c -0.39155,0 -0.77534,0.0288 -1.14867,0.0888 l 2.22704,-19.94143 c 0.27938,0.0387 0.56387,0.061 0.85371,0.061 h 19.3329 c 0.37861,0 0.74666,-0.0363 1.10705,-0.10186 l 2.5403,19.98"
       style="fill:#565352;fill-opacity:1;fill-rule:nonzero;stroke:none;stroke-width:0.133333" />
    <path
       id="path6"
       d="m 48.210657,14.078711 -0.60302,5.934636 v 0.0387 c 0,2.94502 -2.39401,5.34183 -5.33903,5.34183 h -19.33282 c -2.94502,0 -5.33919,-2.39681 -5.33919,-5.34183 l -0.60557,-5.973535 c -0.0734,-0.722267 0.16449,-1.445604 0.65262,-1.983596 0.48566,-0.540217 1.18007,-0.848111 1.90588,-0.848111 h 3.27657 c 0.55868,0 1.04953,0.373083 1.19829,0.911074 l 1.28456,4.631028 2.53766,-0.0916 0.23496,-5.88428 c 0.0181,-0.43036 0.36814,-0.768005 0.79899,-0.768005 h 7.51119 c 0.41248,0 0.75449,0.311273 0.79363,0.721112 l 0.59535,5.955233 3.02332,-0.0859 0.69705,-4.342495 c 0.0966,-0.607795 0.61348,-1.046149 1.22712,-1.046149 h 2.92665 c 0.72581,0 1.42022,0.307894 1.90851,0.848111 0.4855,0.537992 0.72318,1.261329 0.64999,1.983596"
       style="fill:#565352;fill-opacity:1;fill-rule:nonzero;stroke:none;stroke-width:0.133333" />
    <path
       id="path7"
       d="m 19.897147,11.407215 c 0.0577,-0.07335 0.19342,-0.167134 -0.20875,-0.167134 -0.77476,0 -2.92557,0.400609 -2.70636,2.757371 0.26661,2.865985 0.40712,5.717145 0.75293,6.857165 0.30979,1.02216 0.69144,-7.567977 2.16218,-9.447402"
       style="fill:#888685;fill-opacity:1;fill-rule:nonzero;stroke:none;stroke-width:0.133333" />
    <path
       id="path8"
       d="m 28.086927,10.73077 -0.13104,3.378846 c 0,0 2.3083,-3.552819 3.59707,-4.064438 h -2.72259 c -0.35627,0 -0.71872,0.329651 -0.74344,0.685592"
       style="fill:#888685;fill-opacity:1;fill-rule:nonzero;stroke:none;stroke-width:0.133333" />
    <path
       id="path9"
       d="m 44.692697,11.247004 -3.54985,3.260913 c 0,0 0.10524,-0.844732 0.21691,-1.547467 0.1092,-0.687901 0.21922,-1.231578 0.6832,-1.506343 0.20562,-0.366242 2.64974,-0.207103 2.64974,-0.207103"
       style="fill:#888685;fill-opacity:1;fill-rule:nonzero;stroke:none;stroke-width:0.133333" />
    <path
       id="path10"
       d="m 25.867217,26.207907 c 0,0 13.46502,1.64471 14.55649,10.30012 1.02555,8.13225 1.41602,9.46206 1.41602,9.46206 l 4.07359,0.0861 -2.5403,-19.98 -0.98038,0.10079 c -0.0569,0.008 -0.11455,0.009 -0.172,0.009 l -16.35342,0.0214"
       style="fill:#454242;fill-opacity:1;fill-rule:nonzero;stroke:none;stroke-width:0.133333" />
    <path
       id="path11"
       d="m 44.394027,23.337217 c -1.29693,0.98665 -2.8364,1.53263 -2.83648,1.53263 -0.87424,0.3102 -1.64867,0.45327 -2.22531,0.52423 0,0 4.29956,0.28383 5.26107,-0.53453 2.61405,-0.86072 3.06378,-3.82519 3.27129,-6.67297 0.13936,-1.91255 0.3524,-4.184593 0.3524,-4.184593 -0.27081,4.544003 -2.05834,7.993803 -3.82297,9.335233"
       style="fill:#454242;fill-opacity:1;fill-rule:nonzero;stroke:none;stroke-width:0.133333" />
    <path
       id="path12"
       d="m 51.492417,52.750357 c -0.36542,-3.37588 -3.23207,-6.01012 -6.7019,-6.01012 h -11.90255 -11.90264 c -3.46966,0 -6.33631,2.63424 -6.70181,6.01012 -0.0264,0.24015 -0.0107,0.45162 0.18007,-0.2507 0.23496,-0.86163 0.78853,-1.5848 1.47255,-2.13565 1.13046,-0.91371 2.54813,-1.38898 3.99974,-1.43077 2.47503,-0.0701 7.65484,-0.19828 12.95209,-0.22441 5.29733,0.0264 10.47714,0.15395 12.95216,0.22441 1.45154,0.042 2.86929,0.51706 3.99974,1.43077 0.68403,0.55085 1.23752,1.27402 1.47239,2.13565 0.19062,0.70232 0.20628,0.49085 0.18016,0.2507"
       style="fill:#888685;fill-opacity:1;fill-rule:nonzero;stroke:none;stroke-width:0.133333" />
  </g>
  <g
     id="g6"
     inkscape:label="Pawn (black)"
     transform="translate(-449.12017,-2.0254819)">
    <path
       id="path13"
       d="m 371.69422,56.484647 h -33.05571 c -0.44634,-3.67067 0.82759,-5.92112 1.5956,-7.28134 0.95805,-1.68402 2.17125,-2.57697 3.58141,-3.6082 1.26933,-0.93192 2.7104,-1.98953 4.12279,-3.80945 1.48796,-1.9217 2.55018,-4.16968 3.16135,-6.68096 l -0.38116,-0.48302 h -4.01292 c -0.40745,0 -0.75886,-0.27699 -0.85842,-0.67068 l -0.43612,-1.74896 c -0.0835,-0.53569 0.17974,-1.0656 0.66045,-1.32429 l 4.02554,-2.18724 0.0651,-0.64562 c -1.7718,-1.49596 -2.7882,-3.68897 -2.7882,-6.00905 0,-4.34258 3.53222,-7.874713 7.8748,-7.874713 4.34142,0 7.87355,3.532133 7.87355,7.874713 0,2.40365 -1.07589,4.64363 -2.95301,6.14528 l 0.0684,0.65584 3.76231,1.91263 c 0.53453,0.27238 0.81375,0.89048 0.66038,1.48113 l -0.41545,1.71451 c -0.0939,0.39723 -0.44865,0.67645 -0.85849,0.67645 h -3.5173 l -0.38685,0.45212 c 0.37424,2.36244 1.18807,4.47765 2.4208,6.2918 1.44676,2.13013 3.11438,3.2999 4.58405,4.33137 1.48565,1.0417 2.88552,2.0234 3.85956,3.83261 0.70735,1.32108 1.88173,3.5037 1.3472,6.95507 z m -0.65815,-7.32576 c -1.05991,-1.97371 -2.53527,-3.00766 -4.0965,-4.10416 -1.48796,-1.0417 -3.02282,-2.1176 -4.38831,-4.12748 -1.08967,-1.60359 -1.82792,-3.4601 -2.21139,-5.52265 h 3.04689 c 0.77262,0 1.44107,-0.52423 1.62073,-1.27616 l 0.41206,-1.70776 c 0.24386,-0.93399 -0.20603,-1.93209 -1.06444,-2.37044 l -3.24262,-1.64933 c 1.77987,-1.63449 2.79281,-3.92137 2.79281,-6.36507 0,-4.77294 -3.88469,-8.657636 -8.65648,-8.657636 -4.77294,0 -8.65771,3.884696 -8.65771,8.657636 0,2.36244 0.95804,4.60243 2.64743,6.22884 l -3.54021,1.9241 c -0.77831,0.42005 -1.20068,1.28415 -1.05761,2.15633 l 0.44643,1.79585 c 0.18543,0.74518 0.85158,1.26364 1.61843,1.26364 h 3.50131 c -0.5975,2.20677 -1.56692,4.19374 -2.89006,5.9015 -1.34151,1.7329 -2.67611,2.71155 -3.96603,3.65715 -1.41701,1.0417 -2.75729,2.0234 -3.7989,3.85363 -0.78515,1.39145 -2.2502,3.98144 -1.64134,8.11692 l 0.047,0.3341 h 34.39367 l 0.061,-0.321 c 0.70735,-3.90843 -0.64785,-6.43306 -1.3758,-7.78801"
       style="fill:#231f20;fill-opacity:1;fill-rule:nonzero;stroke:none;stroke-width:0.133333" />
    <path
       id="path14"
       d="m 371.69422,56.484647 h -33.05571 c -0.44634,-3.67067 0.82759,-5.92112 1.5956,-7.28134 0.95805,-1.68402 2.17125,-2.57697 3.58141,-3.6082 1.26933,-0.93192 2.7104,-1.98953 4.12279,-3.80945 1.48796,-1.9217 2.55018,-4.16968 3.16135,-6.68096 l -0.38116,-0.48302 h -4.01292 c -0.40745,0 -0.75886,-0.27699 -0.85842,-0.67068 l -0.43612,-1.74896 c -0.0835,-0.53569 0.17974,-1.0656 0.66045,-1.32429 l 4.02554,-2.18724 0.0651,-0.64562 c -1.7718,-1.49596 -2.7882,-3.68897 -2.7882,-6.00905 0,-4.34258 3.53222,-7.874713 7.8748,-7.874713 4.34142,0 7.87355,3.532133 7.87355,7.874713 0,2.40365 -1.07589,4.64363 -2.95301,6.14528 l 0.0684,0.65584 3.76231,1.91263 c 0.53453,0.27238 0.81375,0.89048 0.66038,1.48113 l -0.41545,1.71451 c -0.0939,0.39723 -0.44865,0.67645 -0.85849,0.67645 h -3.5173 l -0.38685,0.45212 c 0.37424,2.36244 1.18807,4.47765 2.4208,6.2918 1.44676,2.13013 3.11438,3.2999 4.58405,4.33137 1.48565,1.0417 2.88552,2.0234 3.85956,3.83261 0.70735,1.32108 1.88173,3.5037 1.3472,6.95507"
       style="fill:#565352;fill-opacity:1;fill-rule:nonzero;stroke:none;stroke-width:0.133333" />
    <path
       id="path15"
       d="m 353.65323,14.323642 c 0,0 -7.91708,1.832455 -5.87175,10.216555 0,0 0.35717,-6.50353 7.46734,-10.379073 l -1.59559,0.162518"
       style="fill:#888685;fill-opacity:1;fill-rule:nonzero;stroke:none;stroke-width:0.133333" />
    <path
       id="path16"
       d="m 349.9711,38.398817 c 0,0 -1.0679,3.26668 -4.43982,5.87406 -3.37201,2.60795 -5.03963,3.73305 -6.17165,6.65747 -1.13087,2.92442 -0.72112,5.55446 -0.72112,5.55446 0,0 0.21296,-3.78538 5.81225,-7.78488 5.59929,-4.00015 5.70693,-7.53805 5.52034,-10.30111"
       style="fill:#888685;fill-opacity:1;fill-rule:nonzero;stroke:none;stroke-width:0.133333" />
    <path
       id="path17"
       d="m 350.09588,28.689357 -3.72333,2.02356 c -0.26785,0.14768 -0.44066,0.20488 -0.64439,0.43267 l -0.20034,0.29537 h 2.12781 c 0.27699,0 0.53676,-0.12824 0.70504,-0.34919 0.57112,-0.74625 1.73521,-2.40241 1.73521,-2.40241 v 0"
       style="fill:#888685;fill-opacity:1;fill-rule:nonzero;stroke:none;stroke-width:0.133333" />
    <path
       id="path18"
       d="m 359.06256,15.148847 c 0,0 7.51877,8.88773 -4.52455,13.06432 l 5.6325,-0.0321 c 0,0 3.00453,-2.2811 2.95187,-6.14527 0,0 0.28729,-4.35395 -4.05982,-6.887"
       style="fill:#454242;fill-opacity:1;fill-rule:nonzero;stroke:none;stroke-width:0.133333" />
    <path
       id="path19"
       d="m 360.23801,28.835797 c 0,0 3.54136,3.79544 -0.36855,5.78588 h 3.5173 c 0,0 0.68106,0.0668 0.85965,-0.67645 0.17966,-0.74163 0.41429,-1.71567 0.41429,-1.71567 0.0156,-0.0882 0.0511,-0.2919 0.033,-0.46472 -0.0445,-0.44182 -0.061,-0.38232 -0.42805,-0.83328 -0.56659,-0.39945 -1.84053,-0.90192 -4.02785,-2.09576"
       style="fill:#454242;fill-opacity:1;fill-rule:nonzero;stroke:none;stroke-width:0.133333" />
    <path
       id="path20"
       d="m 350.7185,34.621677 h 9.15096 c 0,0 -0.14422,0.16829 -0.38685,0.45212 0.11448,0.81498 0.24263,1.58298 1.3655,4.45705 1.16293,2.49859 2.26059,3.63061 5.72753,6.22744 3.27121,1.89203 4.2441,4.69399 4.2441,4.69399 -3.52307,-0.97627 -8.45045,-2.80789 -13.52675,-6.4015 -2.92895,-2.07392 -5.22498,-4.25094 -6.97509,-6.17388 l 0.78176,-2.7722 -0.38116,-0.48302"
       style="fill:#454242;fill-opacity:1;fill-rule:nonzero;stroke:none;stroke-width:0.133333" />
  </g>
  <g
     id="g10"
     inkscape:label="Queen (black)"
     transform="translate(-69.530642,-2.1316319)">
    <path
       id="path21"
       d="m 247.75378,26.679467 -0.30905,0.24493 -7.63324,19.2101 c -0.0651,-0.0206 -0.12815,-0.0396 -0.19112,-0.0602 -3.54251,-1.0679 -8.13686,-1.21682 -12.57784,-1.21682 -4.74434,0 -10.08041,0.49093 -12.31347,1.11232 l -7.43289,-19.06975 -0.34457,-0.2507 c -2.68064,-0.14875 -4.77978,-2.37266 -4.77978,-5.0613 0,-2.79965 2.27657,-5.0763 5.07284,-5.0763 2.79849,0 5.07506,2.27665 5.07506,5.0763 0,0.99695 -0.28729,1.95722 -0.83327,2.7802 l 0.0404,0.48302 5.51581,5.94493 c 0.0892,0.0962 0.21172,0.14538 0.33764,0.14538 0.0552,0 0.10871,-0.008 0.16368,-0.0288 0.17512,-0.0651 0.29297,-0.22895 0.29759,-0.41775 l 0.35248,-13.93305 -0.24493,-0.37316 c -1.93201,-0.776 -3.17966,-2.626829 -3.17966,-4.70998 0,-2.7961836 2.27658,-5.0728376 5.07284,-5.0728376 2.7985,0 5.07507,2.276654 5.07507,5.0728376 0,1.506261 -0.66384,2.923268 -1.81984,3.89277 l -0.12255,0.42006 3.76462,11.5809 c 0.0593,0.19112 0.23463,0.31935 0.43604,0.31935 0.19804,0 0.3754,-0.12593 0.43613,-0.31589 l 3.8355,-11.63471 -0.11563,-0.42014 c -1.12287,-0.962586 -1.76495,-2.362369 -1.76495,-3.84234 0,-2.7961836 2.27657,-5.0728376 5.07284,-5.0728376 2.79849,0 5.07506,2.276654 5.07506,5.0728376 0,2.171251 -1.38033,4.10334 -3.43266,4.80385 l -0.2666,0.39146 0.75993,13.42942 c 0.01,0.19111 0.13285,0.35025 0.31135,0.40975 0.0495,0.0181 0.0984,0.0264 0.14884,0.0264 0.13046,0 0.25746,-0.0569 0.3491,-0.16136 l 4.9629,-5.83277 0.0445,-0.44181 c -0.40984,-0.74403 -0.62609,-1.59214 -0.62609,-2.44832 0,-2.7985 2.27658,-5.07507 5.07276,-5.07507 2.79849,0 5.07506,2.27657 5.07506,5.07507 0,2.51466 -1.8748,4.6756 -4.35972,5.02363 z m -0.71534,-10.88278 c -3.23001,0 -5.85684,2.62914 -5.85684,5.85914 0,0.89855 0.2095,1.78325 0.60087,2.58216 l -4.27153,5.01787 -0.69705,-12.3386 c 2.21476,-0.88478 3.68443,-3.030898 3.68443,-5.437931 0,-3.2300046 -2.62914,-5.8568316 -5.85914,-5.8568316 -3.22894,0 -5.85576,2.626827 -5.85576,5.8568316 0,1.618424 0.66845,3.155589 1.84052,4.260171 l -3.44634,10.45349 -3.37769,-10.3986 c 1.21098,-1.109035 1.90003,-2.665732 1.90003,-4.315061 0,-3.2300046 -2.62913,-5.8568316 -5.85799,-5.8568316 -3.23,0 -5.85683,2.626827 -5.85683,5.8568316 0,2.313247 1.3346,4.372331 3.41997,5.323461 l -0.3285,12.8789 -4.77516,-5.14602 c 0.52538,-0.89056 0.80122,-1.90118 0.80122,-2.94733 0,-3.23001 -2.62914,-5.85914 -5.85799,-5.85914 -3.23009,0 -5.85576,2.62913 -5.85576,5.85914 0,3.01713 2.29149,5.52149 5.2628,5.81908 l 7.33111,18.80801 c -2.62682,0.9452 -5.86375,2.63177 -5.86375,6.29997 v 4.85865 h 37.84578 v -4.85865 c 0,-3.59254 -2.71723,-5.19819 -5.40933,-6.13547 l 7.53707,-18.96797 c 2.75506,-0.50017 4.80384,-2.93126 4.80384,-5.75613 0,-3.23 -2.62913,-5.85914 -5.85798,-5.85914 z m -1.96637,35.61957 c 0.0733,0.34712 0.10985,0.71271 0.10985,1.09914 v 4.0754 h -36.27994 v -4.0754 c 0,-2.54821 1.81762,-4.3575 5.72069,-5.69423 1.86673,-0.63961 7.55305,-1.18007 12.41986,-1.18007 4.38032,0 8.90718,0.14364 12.35121,1.18534 3.43604,1.03643 5.23766,2.47766 5.67833,4.58982"
       style="fill:#231f20;fill-opacity:1;fill-rule:nonzero;stroke:none;stroke-width:0.133333" />
    <path
       id="path22"
       d="m 252.1135,21.655827 c 0,2.51467 -1.87481,4.67561 -4.35972,5.02364 l -0.30905,0.24493 -7.63324,19.2101 c -0.0651,-0.0206 -0.12815,-0.0396 -0.19112,-0.0602 -3.54251,-1.0679 -8.13686,-1.21682 -12.57784,-1.21682 -4.74434,0 -10.08041,0.49093 -12.31347,1.11232 l -7.43289,-19.06975 -0.34457,-0.2507 c -2.68064,-0.14875 -4.77978,-2.37266 -4.77978,-5.0613 0,-2.79965 2.27657,-5.0763 5.07284,-5.0763 2.79849,0 5.07506,2.27665 5.07506,5.0763 0,0.99695 -0.28729,1.95722 -0.83327,2.7802 l 0.0404,0.48302 5.51581,5.94493 c 0.0892,0.0962 0.21172,0.14538 0.33764,0.14538 0.0552,0 0.10871,-0.008 0.16368,-0.0288 0.17512,-0.0651 0.29297,-0.22895 0.29759,-0.41775 l 0.35248,-13.93305 -0.24493,-0.37316 c -1.93201,-0.776 -3.17966,-2.626829 -3.17966,-4.70998 0,-2.7961836 2.27658,-5.0728376 5.07284,-5.0728376 2.7985,0 5.07507,2.276654 5.07507,5.0728376 0,1.506261 -0.66384,2.923268 -1.81984,3.89277 l -0.12255,0.42006 3.76462,11.5809 c 0.0593,0.19112 0.23463,0.31935 0.43604,0.31935 0.19804,0 0.3754,-0.12593 0.43613,-0.31589 l 3.8355,-11.63471 -0.11563,-0.42014 c -1.12287,-0.962586 -1.76495,-2.362369 -1.76495,-3.84234 0,-2.7961836 2.27657,-5.0728376 5.07284,-5.0728376 2.79849,0 5.07506,2.276654 5.07506,5.0728376 0,2.171251 -1.38033,4.10334 -3.43266,4.80385 l -0.2666,0.39146 0.75993,13.42942 c 0.01,0.19111 0.13285,0.35025 0.31135,0.40975 0.0495,0.0181 0.0984,0.0264 0.14884,0.0264 0.13046,0 0.25746,-0.0569 0.3491,-0.16136 l 4.9629,-5.83277 0.0445,-0.44181 c -0.40984,-0.74403 -0.62609,-1.59214 -0.62609,-2.44832 0,-2.7985 2.27658,-5.07507 5.07276,-5.07507 2.79849,0 5.07506,2.27657 5.07506,5.07507"
       style="fill:#565352;fill-opacity:1;fill-rule:nonzero;stroke:none;stroke-width:0.133333" />
    <path
       id="path23"
       d="m 245.07207,51.416257 c -0.89278,-1.90069 -5.56386,-2.23232 -12.96247,-2.49851 -7.39861,-0.26636 -15.33283,0.33146 -18.73227,0.53255 -3.39945,0.20101 -4.47535,3.0651 -4.47535,3.0651 0,-2.54821 1.81762,-4.3575 5.72069,-5.69423 1.86673,-0.63961 7.55305,-1.18007 12.41986,-1.18007 4.38032,0 8.90718,0.14364 12.35121,1.18534 3.43604,1.03643 5.23766,2.47766 5.67833,4.58982"
       style="fill:#888685;fill-opacity:1;fill-rule:nonzero;stroke:none;stroke-width:0.133333" />
    <path
       id="path24"
       d="m 219.84195,6.4064874 c 0,0 -4.34941,0.0082 -5.05108,4.6047336 0,0 -0.0536,1.181141 0.2999,2.25597 0,0 -0.30336,-4.2452496 4.75118,-6.8607036"
       style="fill:#888685;fill-opacity:1;fill-rule:nonzero;stroke:none;stroke-width:0.133333" />
    <path
       id="path25"
       d="m 234.5899,6.4064874 c 0,0 -3.14183,0.0082 -4.51648,2.830552 -0.52084,1.0713646 -0.62955,2.2972556 -0.38462,3.4635626 0.0387,0.187737 0.14192,0.378852 0.20257,0.566589 0,0 -0.35594,-4.2452496 4.69853,-6.8607036"
       style="fill:#888685;fill-opacity:1;fill-rule:nonzero;stroke:none;stroke-width:0.133333" />
    <path
       id="path26"
       d="m 247.0808,16.573847 c 0,0 -3.14191,-0.0387 -4.55546,2.76651 -0.53568,1.06445 -0.66268,2.28918 -0.43497,3.4578 0.0363,0.18881 0.13738,0.38116 0.19573,0.56996 0,0 -0.29529,-4.25093 4.7947,-6.79427"
       style="fill:#888685;fill-opacity:1;fill-rule:nonzero;stroke:none;stroke-width:0.133333" />
    <path
       id="path27"
       d="m 207.18854,16.513187 c 0,0 -0.48418,0 -1.15032,0.14422 -1.34028,0.29306 -3.39599,1.37696 -3.86409,4.44214 0,0 -0.0527,1.18007 0.30097,2.25597 0,0 -0.33987,-4.22696 4.71344,-6.84233"
       style="fill:#888685;fill-opacity:1;fill-rule:nonzero;stroke:none;stroke-width:0.133333" />
    <path
       id="path28"
       d="m 250.43673,17.890137 c 0,0 1.32544,5.52611 -3.7966,6.69588 0,0 -0.5998,0.13384 -0.89961,1.00033 -0.2999,0.86649 -4.03354,7.93199 -9.09953,13.79797 -5.06592,5.86622 -8.53171,5.47798 -8.53171,5.47798 0,0 4.90571,-0.27815 11.70114,1.27163 l 7.63431,-19.21068 c 0,0 0.23924,-0.18197 0.30905,-0.24271 0.0701,-0.061 3.5093,-0.23693 4.30829,-4.30936 0,0 0.57228,-2.31201 -1.62534,-4.48104"
       style="fill:#454242;fill-opacity:1;fill-rule:nonzero;stroke:none;stroke-width:0.133333" />
    <path
       id="path29"
       d="m 245.18192,56.590797 h -36.27994 v -4.0754 c 0,0 1.0759,-2.86409 4.47535,-3.0651 3.39944,-0.20109 11.33366,-0.79891 18.73227,-0.53255 7.39861,0.26619 12.06969,0.59782 12.96247,2.49851 l 0.10985,5.17454"
       style="fill:#565352;fill-opacity:1;fill-rule:nonzero;stroke:none;stroke-width:0.133333" />
    <path
       id="path30"
       d="m 210.3339,17.565107 c 0,0 1.04384,1.97782 -0.17858,4.02207 -1.18584,1.9836 0.0445,3.62147 0.80006,4.28761 0.7554,0.6673 2.82371,1.4044 2.82371,1.4044 l -2.25259,-2.42763 -0.0404,-0.48303 c 0,0 0.85503,-1.0473 0.82866,-2.98169 -0.0264,-1.93316 -1.32083,-3.36624 -1.98121,-3.82173"
       style="fill:#454242;fill-opacity:1;fill-rule:nonzero;stroke:none;stroke-width:0.133333" />
    <path
       id="path31"
       d="m 223.46111,7.9265104 c 0,0 0.35479,3.4635626 -1.51771,5.3406806 -2.43794,2.443706 3.21624,9.247056 3.21624,9.247056 l -2.18501,-6.72209 0.12255,-0.42006 c 0,0 0.75309,-0.594113 1.28416,-1.623038 0.73487,-1.426156 1.11141,-3.637539 -0.92023,-5.8225486"
       style="fill:#454242;fill-opacity:1;fill-rule:nonzero;stroke:none;stroke-width:0.133333" />
    <path
       id="path32"
       d="m 238.52387,8.2195704 c 0,0 0.49448,3.8354916 -2.74929,5.0350116 -3.24377,1.199519 0.65815,10.804905 0.65815,10.804905 l -0.41775,-7.38485 0.2666,-0.39146 c 0,0 1.95154,-0.53223 2.98854,-2.731002 1.037,-2.197622 0,-4.3688696 -0.74625,-5.3326046"
       style="fill:#454242;fill-opacity:1;fill-rule:nonzero;stroke:none;stroke-width:0.133333" />
  </g>
  <g
     id="g14"
     inkscape:label="Knight (black)"
     transform="translate(-64.848678,-1.9277119)">
    <path
       id="path33"
       d="m 117.66018,55.426387 c 0,0.52999 -0.43036,0.96076 -0.96035,0.96076 H 82.216247 c -0.53,0 -0.96077,-0.43077 -0.96077,-0.96076 v -2.74394 c 0,-2.95541 2.00766,-5.50361 4.88486,-6.19538 0.30797,-0.0626 11.221165,-2.25309 27.196713,0.16449 2.58678,0.87968 4.32313,3.29998 4.32313,6.03089 z M 88.150547,42.051197 c 1.43852,-2.34753 3.3706,-3.92129 5.24508,-5.44593 1.370775,-1.1148 2.665645,-2.16671 3.668205,-3.45895 1.41766,-1.82214 1.32107,-3.85378 0.75712,-5.14948 -0.042,-0.0984 -0.0709,-0.16936 -0.0913,-0.22433 -0.0888,-0.23232 -0.13845,-0.3102 -0.37078,-0.50593 -0.1045,-0.0836 -0.22968,-0.12815 -0.35767,-0.12815 -0.14628,0 -0.29248,0.0593 -0.40209,0.17282 -0.43085,0.45665 -4.268655,4.47188 -6.203215,4.95491 -0.73883,0.18312 -1.35503,0.15913 -1.89805,0.13507 -0.9869,-0.0387 -1.84061,-0.0725 -2.59774,1.25671 -0.72317,1.26364 -1.54301,2.11983 -1.96596,2.51928 -0.15922,0.15106 -0.3655,0.24493 -0.5848,0.26554 -3.12517,0.29759 -5.25546,-1.14571 -6.58709,-2.25828 -1.47766,-1.22927 -0.98154,-2.8008 -0.92146,-2.97016 0.16442,-0.39723 3.18254,-5.79164 4.47996,-6.53558 1.55349,-0.88479 3.63696,-7.4479 3.86146,-8.57646 0.24023,-1.198367 2.28184,-2.957552 3.63679,-4.125095 l 0.14365,-0.124691 c 0.77278,-0.66845 0.83805,-1.47997 0.90324,-2.2720386 0.0758,-0.911073 0.15411,-1.850827 1.12263,-2.951862 0.36031,-0.413218 0.89558,-0.880169 1.39162,-0.780614 0.59527,0.119004 0.92163,0.972883 0.95558,1.070213 l 0.0288,0.07994 3.234875,3.2929686 c 0.33674,0.338799 0.77798,0.550517 1.24015,0.595185 2.663,0.273528 7.088318,1.88742 10.391338,4.440984 4.25555,3.28951 6.8401,7.6653 7.90224,13.37222 1.09419,5.88428 -1.27163,14.71135 -1.97667,17.13462 -14.160408,-2.10169 -24.342523,-0.61348 -26.676533,-0.2062 0.21147,-1.16408 1.23487,-2.91412 1.67084,-3.57688 z m 25.765703,3.97633 c 0.72565,-2.5009 3.10977,-11.4436 1.98467,-17.46872 -1.09997,-5.90834 -3.7783,-10.43742 -8.19068,-13.852852 -3.41981,-2.641745 -8.017368,-4.31283 -10.792608,-4.597814 -0.28194,-0.02884 -0.55349,-0.1591386 -0.75977,-0.3685496 l -3.117265,-3.171657 c -0.13837,-0.344568 -0.60046,-1.304842 -1.50379,-1.487963 -0.69449,-0.138536 -1.41239,0.206032 -2.13828,1.031231 -1.13565,1.294541 -1.23496,2.464309 -1.31325,3.412056 -0.0626,0.7416316 -0.10434,1.2773156 -0.63705,1.7362726 l -0.14348,0.125927 c -1.60302,1.380415 -3.59774,3.100702 -3.89014,4.565759 -0.31588,1.57721 -2.36541,7.41237 -3.48021,8.04876 -1.58999,0.90877 -4.76206,6.72786 -4.8326,6.94765 -0.0783,0.23002 -0.72573,2.27081 1.1593,3.8378 1.43851,1.20405 3.74377,2.76528 7.16143,2.43563 0.39418,-0.0363 0.76751,-0.20603 1.04944,-0.47503 0.45426,-0.42805 1.3341,-1.34712 2.10697,-2.70231 0.5248,-0.91338 0.95022,-0.89509 1.8875,-0.85841 0.56659,0.0231 1.26891,0.0511 2.11743,-0.15684 1.97115,-0.49563 5.380825,-3.92136 6.409415,-4.99496 0,0.008 0,0.014 0.008,0.0214 0.0264,0.0618 0.0577,0.14307 0.10434,0.25532 0.47263,1.08843 0.54837,2.80418 -0.65527,4.35511 -0.9503,1.22127 -2.2113,2.24797 -3.550595,3.33648 -1.92154,1.56353 -3.90579,3.17734 -5.40702,5.62904 -0.18271,0.27699 -1.68658,2.60054 -1.82232,4.16927 -3.07548,0.87456 -5.19546,3.66292 -5.19546,6.88205 v 2.74393 c 0,0.96077 0.78316,1.74402 1.74393,1.74402 h 34.483903 c 0.96028,0 1.7432,-0.78325 1.7432,-1.74402 v -2.74393 c 0,-2.95277 -1.80385,-5.57927 -4.52685,-6.65492"
       style="fill:#000000;fill-opacity:1;fill-rule:nonzero;stroke:none;stroke-width:0.133333" />
    <path
       id="path34"
       d="m 113.15624,45.823887 c -14.160408,-2.10161 -24.342513,-0.61348 -26.676533,-0.20628 0.21147,-1.16392 1.23488,-2.91395 1.67084,-3.57672 1.43852,-2.34753 3.3706,-3.92128 5.24508,-5.44592 1.370775,-1.1148 2.665645,-2.16671 3.668205,-3.4601 1.41766,-1.82215 1.32107,-3.85264 0.75712,-5.14833 -0.042,-0.0984 -0.0709,-0.16936 -0.0913,-0.22433 -0.0888,-0.23232 -0.13845,-0.3102 -0.37078,-0.50593 -0.1045,-0.0836 -0.22968,-0.12815 -0.35767,-0.12815 -0.14628,0 -0.29248,0.0593 -0.40209,0.17282 -0.43085,0.45665 -4.268655,4.47188 -6.203215,4.9549 -0.73883,0.18197 -1.35503,0.15914 -1.89805,0.13508 -0.9869,-0.0387 -1.84061,-0.0733 -2.59774,1.25671 -0.72317,1.26364 -1.54301,2.11982 -1.96596,2.51928 -0.15922,0.15106 -0.3655,0.24493 -0.5848,0.26553 -3.12517,0.2976 -5.25546,-1.1457 -6.58709,-2.25827 -1.47766,-1.22927 -0.98154,-2.8008 -0.92146,-2.97016 0.16442,-0.39723 3.18254,-5.79165 4.47996,-6.53559 1.55349,-0.88478 3.63696,-7.44789 3.86146,-8.57645 0.24023,-1.198368 2.28184,-2.957553 3.63679,-4.125097 l 0.14365,-0.124691 c 0.77278,-0.66845 0.83805,-1.481123 0.90324,-2.2720386 0.0758,-0.911073 0.15411,-1.850826 1.12263,-2.951862 0.36031,-0.413217 0.89558,-0.880169 1.39162,-0.781768 0.59527,0.120158 0.92163,0.974038 0.95558,1.071367 l 0.0288,0.07994 3.234875,3.2929676 c 0.33674,0.338799 0.77798,0.550518 1.24015,0.595185 2.663,0.273529 7.088318,1.88742 10.391338,4.440987 4.25555,3.28951 6.8401,7.6653 7.90224,13.37222 1.09419,5.88428 -1.27163,14.71135 -1.97667,17.13453"
       style="fill:#565352;fill-opacity:1;fill-rule:nonzero;stroke:none;stroke-width:0.133333" />
    <path
       id="path35"
       d="m 89.726117,17.520437 c 0,0 -0.97775,1.22243 -1.28886,2.68864 0,0 0.87218,-0.57459 3.17751,-0.28845 2.327425,0.28845 2.044095,-2.34984 1.19985,-2.91066 -0.38116,-0.25407 -1.73314,-1.04499 -3.0885,0.51047"
       style="fill:#231f20;fill-opacity:1;fill-rule:nonzero;stroke:none;stroke-width:0.133333" />
    <path
       id="path36"
       d="m 103.52712,13.005035 c 0,0 8.68483,6.960262 7.17396,15.581302 -1.51088,8.62096 -6.39903,12.88689 -7.28785,14.57512 -0.51376,0.97635 -0.24493,1.68831 -0.24493,1.68831 0,0 5.73346,0.26743 9.98794,0.97849 0,0 3.44403,-9.36029 1.88857,-17.44795 0,0 -0.75548,-5.72638 -4.62187,-9.99338 0,0 -2.60392,-3.44865 -6.89582,-5.381892"
       style="fill:#454242;fill-opacity:1;fill-rule:nonzero;stroke:none;stroke-width:0.133333" />
    <path
       id="path37"
       d="m 91.192487,5.9223954 c 0,0 -0.86649,-0.133921 -1.84976,1.68254 0,0 -0.34984,0.817205 -0.43316,1.833603 -0.0834,1.0163956 -0.0834,1.7157516 -1.06659,2.5329566 -0.98326,0.816053 -1.84983,1.633342 -1.84983,1.633342 0,0 -1.28309,1.283085 -1.64974,2.06593 l -0.35001,1.33344 -0.86657,2.56617 c 0,0 -0.81655,2.05002 -0.89987,2.24913 -0.0833,0.20034 -0.76652,1.46736 -0.83319,1.61735 -0.0668,0.14991 -0.56659,0.98318 -1.26652,1.38264 0,0 -0.36113,0.30558 -0.51657,0.50593 -0.15551,0.20026 -1.01104,1.28877 -1.13878,1.51079 -0.12782,0.2221 -1.83591,2.80772 -2.3673,3.87101 -0.12428,0.23694 -0.27691,0.42575 -0.3435,0.83666 -0.12461,0.51969 5.49438,-6.14981 5.49438,-6.14981 0,0 3.21237,-4.64471 3.64364,-6.998 0.73322,-4.001478 4.00476,-4.426151 4.62698,-6.808049 0.45509,-1.7431956 0.71938,-1.534856 1.40745,-3.7450846 0.45277,-1.454751 1.04829,-2.019032 0.25894,-1.920548"
       style="fill:#888685;fill-opacity:1;fill-rule:nonzero;stroke:none;stroke-width:0.133333" />
    <path
       id="path38"
       d="m 117.66018,52.682447 v 2.74394 c 0,0.52999 -0.43036,0.96076 -0.96035,0.96076 H 82.216247 c -0.53,0 -0.96077,-0.43077 -0.96077,-0.96076 v -2.74394 c 0,-2.95541 2.00766,-5.50361 4.88486,-6.19538 0.30797,-0.0626 11.221165,-2.25309 27.196713,0.16449 2.58678,0.87968 4.32313,3.29998 4.32313,6.03089"
       style="fill:#565352;fill-opacity:1;fill-rule:nonzero;stroke:none;stroke-width:0.133333" />
    <path
       id="path39"
       d="m 117.17716,50.243937 c -0.5712,-0.41775 -1.11941,-0.47256 -1.11941,-0.47256 -2.70809,-0.92154 -6.14643,-1.44634 -7.9446,-1.56906 -1.80187,-0.12535 -20.200113,-0.47774 -24.064123,0.85627 -0.73883,0.25334 -1.4672,0.5483 -2.16441,0.85644 0.80682,-1.68147 2.33673,-2.96588 4.25572,-3.42796 0.30797,-0.0626 11.221165,-2.25309 27.196713,0.16449 1.77526,0.6031 3.15106,1.93456 3.84011,3.59238"
       style="fill:#888685;fill-opacity:1;fill-rule:nonzero;stroke:none;stroke-width:0.133333" />
    <path
       id="path40"
       d="m 96.717452,27.217377 c 0,0 2.4291,-2.63136 2.74046,-4.54169 0.31135,-1.91148 0.844568,1.51088 0.578038,2.66573 -0.266688,1.156 -0.883868,5.05561 -2.342738,6.79543 0,0 0.52283,-0.96489 0.50956,-2.10606 -0.0124,-1.09312 -0.16787,-1.69746 -0.70141,-2.59592 -0.2929,-0.49333 -0.78391,-0.21749 -0.78391,-0.21749"
       style="fill:#454242;fill-opacity:1;fill-rule:nonzero;stroke:none;stroke-width:0.133333" />
    <path
       id="path41"
       d="m 83.926807,36.118867 c 0,0 2.41634,-5.41625 3.13292,-5.43339 0.71658,-0.0157 4.06947,0.4784 5.39285,0.42467 0,0 -1.26009,1.71913 -4.84612,1.29792 0,0 -1.00725,0.11216 -1.9686,1.68369 -0.9334,1.52687 -1.62773,1.97668 -1.71105,2.02711"
       style="fill:#454242;fill-opacity:1;fill-rule:nonzero;stroke:none;stroke-width:0.133333" />
  </g>
  <g
     id="g12"
     inkscape:label="Bishop (black)"
     transform="translate(-66.991763,-1.9093819)">
    <path
       id="path42"
       d="m 179.85698,56.026847 c 0,0.1879 -0.15337,0.34201 -0.34226,0.34201 h -35.5955 c -0.18766,0 -0.34103,-0.15411 -0.34103,-0.34201 v -2.24007 c 0,-4.16935 3.39137,-7.5608 7.55998,-7.5608 h 0.0363 c 3.34225,-0.31325 6.74162,-0.48038 10.0987,-0.4934 3.65584,-0.0132 7.34942,0.15139 10.98687,0.4934 h 0.0354 c 4.16968,0 7.56113,3.39145 7.56113,7.5608 z m -31.63524,-28.77626 0.0181,-0.0836 c 0.7005,-6.0491 8.36012,-12.944088 9.89036,-14.265002 l 0.0494,-0.402833 c -0.70167,-0.795533 -1.09082,-1.822232 -1.09082,-2.8843676 0,-2.404805 1.95492,-4.363181 4.35972,-4.363181 2.40481,0 4.36203,1.958376 4.36203,4.363181 0,1.7935496 -1.1251,3.4302696 -2.8008,4.0701236 l -0.14076,0.10417 c -3.54598,5.645119 -3.73594,17.818889 -3.74402,18.332819 l -0.008,0.40522 5.95301,-0.0313 -0.008,-0.38693 c -0.10878,-9.5481 2.41049,-14.81889 3.24262,-16.24735 8.92201,9.7805 8.09903,14.69874 8.08873,14.7434 l -0.008,0.0445 v 0.047 c 0.19573,7.52223 -3.34448,12.62021 -5.08075,14.65696 -3.3308,-0.28185 -6.70156,-0.41775 -10.03805,-0.4072 -2.95071,0.0132 -5.92894,0.14875 -8.87743,0.39154 -7.34594,-8.44105 -4.20519,-17.99377 -4.17198,-18.08764 z m 24.09241,18.19214 c -0.0181,0 -0.0387,0 -0.0569,-0.008 1.88281,-2.34473 5.09336,-7.43586 4.91593,-14.72223 0.0973,-0.59296 0.60095,-5.78818 -8.63588,-15.760958 l -0.32388,-0.350255 -0.28161,0.386846 c -0.15221,0.210647 -3.70041,5.377277 -3.65006,16.739617 h -4.36318 c 0.0651,-2.16672 0.52999,-12.42794 3.5299,-17.380541 1.88742,-0.795531 3.14644,-2.67265 3.14644,-4.7328886 0,-2.837473 -2.30863,-5.146103 -5.14602,-5.146103 -2.83516,0 -5.1438,2.30863 -5.1438,5.146103 0,1.0805146 0.34227,2.1255086 0.96605,2.9942236 -2.5192,2.227373 -9.1006,8.551236 -9.80334,14.429826 -0.22663,0.71535 -2.9634,9.99445 3.96595,18.37765 -0.10417,0.0107 -0.20833,0.0157 -0.31358,0.0264 -4.59212,0.0107 -8.32575,3.74913 -8.32575,8.34405 v 2.24007 c 0,0.62139 0.50478,1.12526 1.1251,1.12526 h 35.5955 c 0.62156,0 1.12625,-0.50387 1.12625,-1.12526 v -2.24007 c 0,-4.59492 -3.73363,-8.33358 -8.32682,-8.34405"
       style="fill:#000000;fill-opacity:1;fill-rule:nonzero;stroke:none;stroke-width:0.133333" />
    <path
       id="path43"
       d="m 179.85698,53.786777 v 2.24007 c 0,0.1879 -0.15337,0.34201 -0.34226,0.34201 h -35.5955 c -0.18766,0 -0.34103,-0.15411 -0.34103,-0.34201 v -2.24007 c 0,-4.16935 3.39137,-7.5608 7.55998,-7.5608 h 0.0363 c 3.34225,-0.31325 6.74162,-0.48038 10.0987,-0.4934 3.65584,-0.0132 7.34942,0.15139 10.98687,0.4934 h 0.0354 c 4.16968,0 7.56113,3.39145 7.56113,7.5608"
       style="fill:#565352;fill-opacity:1;fill-rule:nonzero;stroke:none;stroke-width:0.133333" />
    <path
       id="path44"
       d="m 176.39004,30.650037 v 0.047 c 0.19573,7.52223 -3.34448,12.62021 -5.08084,14.65696 -3.33071,-0.28186 -6.70156,-0.41775 -10.03804,-0.40721 -2.95071,0.0132 -5.92895,0.14876 -8.87743,0.39155 -7.34595,-8.44105 -4.2052,-17.99377 -4.17199,-18.08764 l 0.0181,-0.0836 c 0.7005,-6.0491 8.36012,-12.94409 9.89036,-14.265004 l 0.0494,-0.402834 c -0.70167,-0.795532 -1.09082,-1.822231 -1.09082,-2.8843676 0,-2.404805 1.95492,-4.363181 4.35972,-4.363181 2.40481,0 4.36203,1.958376 4.36203,4.363181 0,1.7935506 -1.1251,3.4302706 -2.8008,4.0701246 l -0.14076,0.10417 c -3.54598,5.645111 -3.73594,17.818891 -3.74402,18.332821 l -0.008,0.40522 5.95301,-0.0313 -0.008,-0.38693 c -0.10878,-9.5481 2.41049,-14.8189 3.24262,-16.24736 8.92201,9.78051 8.09903,14.69874 8.08873,14.74341 l -0.008,0.0445"
       style="fill:#565352;fill-opacity:1;fill-rule:nonzero;stroke:none;stroke-width:0.133333" />
    <path
       id="path45"
       d="m 172.43777,20.948477 c 0.50247,0.87564 3.75192,6.77821 1.32198,13.85863 -2.44824,7.13654 -8.71713,9.79196 -9.64313,10.16603 l 7.19258,0.38075 c 0,0 2.62914,-2.94783 3.93736,-7.01341 1.17207,-3.63977 1.53263,-8.42416 0.76001,-10.54852 -0.85726,-2.35552 -1.39063,-3.72217 -3.5688,-6.84348"
       style="fill:#454242;fill-opacity:1;fill-rule:nonzero;stroke:none;stroke-width:0.133333" />
    <path
       id="path46"
       d="m 179.05346,50.400597 c -0.69474,-0.26627 -1.45937,-0.53519 -2.27196,-0.8172 -3.26899,-1.13054 -18.33059,-0.73356 -26.06339,-0.46736 -3.21855,0.10969 -5.33153,1.0548 -6.69695,2.11743 1.04953,-2.91634 3.84349,-5.00749 7.11701,-5.00749 h 0.0363 c 3.34225,-0.31325 6.74162,-0.48038 10.0987,-0.4934 3.65584,-0.0132 7.34942,0.15139 10.98687,0.4934 h 0.0354 c 2.95302,0 5.51688,1.70224 6.7576,4.17462"
       style="fill:#888685;fill-opacity:1;fill-rule:nonzero;stroke:none;stroke-width:0.133333" />
    <path
       id="path47"
       d="m 163.2845,5.6590864 c 0,0 2.45055,2.365907 1.01071,5.0625356 -1.44107,2.696632 -4.58866,3.838957 -5.78818,8.371495 -1.20067,4.53254 -0.65584,6.21055 0.61233,13.43404 l 0.36624,-5.97131 c 0,0 0.70966,-5.98053 1.6448,-8.77902 1.00494,-2.63367 1.59782,-3.953349 1.97898,-4.131937 0.51277,-0.151063 1.49711,-0.790917 1.9962,-1.664247 0.52192,-0.842424 0.83665,-1.758113 0.68897,-2.7446756 -0.17735,-1.181223 -0.54137,-2.573093 -2.51005,-3.576881"
       style="fill:#454242;fill-opacity:1;fill-rule:nonzero;stroke:none;stroke-width:0.133333" />
    <path
       id="path48"
       d="m 161.01592,5.2733934 c 0,0 -2.54441,0.325037 -3.45433,2.369287 0,0 -1.33459,2.6714926 0.61925,4.8576586 0,0 0,0 0,0 l -0.0495,0.402917 -0.37662,0.329651 -0.33073,0.294132 v 0 c -0.15114,0.122466 -0.80583,0.67183 -1.93777,1.862198 -1.30031,1.36896 -4.91947,5.23882 -5.93587,7.78093 -1.01639,2.54095 -2.43562,6.14182 -2.02364,9.71639 0.41322,3.57457 0.45673,3.78061 0.45673,3.78061 0.17167,-1.31062 0.45896,-3.03552 0.96604,-5.02587 0.44866,-1.76157 1.19721,-5.27541 3.16935,-8.98621 1.81531,-3.41659 4.10902,-6.55957 4.52224,-7.08841 0.65131,-0.833279 1.63334,-2.554719 1.63334,-2.555873 0,0 -0.008,-0.526453 -0.008,-0.527607 0,0.02555 -2.21707,-5.0773716 2.74814,-7.2086496"
       style="fill:#888685;fill-opacity:1;fill-rule:nonzero;stroke:none;stroke-width:0.133333" />
  </g>
  <g
     id="g8"
     inkscape:label="King (black)"
     transform="translate(-71.295587,-2.0637219)">
    <path
       id="path49"
       d="m 286.40312,37.218747 c 0,0.21865 -0.17974,0.39723 -0.39945,0.39723 h -0.5403 c -1.18007,0 -2.29149,-0.46019 -3.13499,-1.298 -1.52463,-1.50626 -4.05528,-4.44329 -3.85618,-7.16967 0.0363,-0.52192 0.38347,-1.04961 0.95006,-1.44329 0.45442,-0.31367 1.18576,-0.65016 2.22968,-0.65016 1.09873,0 2.54779,0.37317 4.38832,1.54063 0.24839,0.15683 0.40291,0.43835 0.39945,0.73594 z m 0.0552,-9.2871 c -3.96826,-2.51351 -6.39136,-1.62304 -7.48218,-0.86879 -0.76224,0.52999 -1.22927,1.26825 -1.28647,2.02818 -0.20718,2.88782 2.10944,5.82716 4.08504,7.78323 0.99234,0.98434 2.30287,1.52455 3.68897,1.52455 h 0.5403 c 0.64776,0 1.17776,-0.5276 1.18344,-1.1743 l 0.0363,-7.88732 c 0,-0.56428 -0.29076,-1.10227 -0.76578,-1.40555"
       style="fill:#000000;fill-opacity:1;fill-rule:nonzero;stroke:none;stroke-width:0.133333" />
    <path
       id="path50"
       d="m 301.16713,36.317977 v 0 c -0.84358,0.83781 -1.95846,1.298 -3.13853,1.298 h -0.53675 c -0.2198,0 -0.39946,-0.17858 -0.39946,-0.39723 l -0.0363,-7.88732 c 0,-0.29759 0.15115,-0.57911 0.39608,-0.73594 1.8439,-1.16746 3.29297,-1.54063 4.39178,-1.54063 1.04384,0 1.77295,0.33649 2.22737,0.65016 0.56651,0.39368 0.91561,0.92137 0.95228,1.44329 0.19911,2.72638 -2.33154,5.66341 -3.85387,7.16967 z m 4.63671,-7.22694 c -0.0577,-0.75993 -0.52653,-1.49819 -1.29223,-2.02818 -1.08851,-0.75425 -3.50592,-1.64472 -7.47987,0.86879 -0.47503,0.30328 -0.76463,0.83897 -0.76232,1.40555 l 0.0363,7.88732 c 0,0.6467 0.53568,1.1743 1.18353,1.1743 h 0.53684 c 0.69474,0 1.36888,-0.13614 1.99497,-0.39484 0.62724,-0.25523 1.20067,-0.63639 1.69745,-1.1274 1.97898,-1.95838 4.29215,-4.89772 4.08504,-7.78554"
       style="fill:#000000;fill-opacity:1;fill-rule:nonzero;stroke:none;stroke-width:0.133333" />
    <path
       id="path51"
       d="m 312.03376,38.105847 -7.36763,7.91122 c -0.11447,-0.0313 -0.23809,-0.0552 -0.35487,-0.0835 -0.0791,-0.0181 -0.15452,-0.0363 -0.23232,-0.0519 -0.24608,-0.0519 -0.49332,-0.0966 -0.74971,-0.13318 -0.48533,-0.0701 -0.97057,-0.13574 -1.45706,-0.19573 -0.0701,-0.008 -0.14076,-0.0157 -0.20834,-0.0239 -0.42352,-0.0519 -0.84357,-0.10178 -1.26586,-0.1462 -0.0321,0 -0.061,-0.008 -0.0916,-0.008 -2.41733,-0.25326 -4.85412,-0.39946 -7.28183,-0.43869 -0.10986,0 -0.21972,0 -0.3285,0 -0.31589,0 -0.63524,-0.008 -0.95343,-0.008 h -0.24263 c -4.03353,0.0132 -7.65961,0.41248 -10.86102,0.76504 l -0.48871,0.0552 c -0.24724,0.0288 -0.49332,0.0651 -0.73026,0.10969 -0.0791,0.0132 -0.15452,0.0313 -0.23001,0.047 -0.11793,0.0231 -0.23471,0.0445 -0.34688,0.0733 l -7.28752,-7.86952 c -7.40668,-9.20256 -1.7593,-15.65342 -1.51668,-15.92242 l 0.0181,-0.0214 c 5.31884,-6.77483 13.9731,-3.71764 16.50029,-2.61768 0.28737,0.12247 0.61356,0.11447 0.89277,-0.0264 0.2793,-0.13853 0.48303,-0.39492 0.55629,-0.70051 l 0.99242,-4.131929 h -4.19383 V 9.1610734 h 4.26701 v -4.532541 h 5.44254 v 4.532541 h 4.26701 v 5.5272646 h -4.19371 l 0.99233,4.131929 c 0.0734,0.30559 0.27699,0.56198 0.55629,0.70051 0.27929,0.14076 0.60548,0.14876 0.89277,0.0264 2.52728,-1.09996 11.1826,-4.15715 16.50037,2.61768 l 0.0181,0.0214 c 0.24262,0.269 5.89005,6.71986 -1.51433,15.92233 z m -1.99151,15.18489 v 2.49068 c 0,0.40992 -0.33196,0.74147 -0.74171,0.74147 h -35.13078 c -0.40976,0 -0.74171,-0.33155 -0.74171,-0.74147 v -2.49068 c 0,-3.1251 2.06485,-5.61586 5.38872,-6.50081 0.44635,-0.12015 0.92369,-0.20891 1.42039,-0.26636 l 0.48763,-0.0519 c 3.18081,-0.35256 6.78629,-0.74938 10.77746,-0.7624 h 0.24032 c 3.83326,0 7.69158,0.27411 11.47681,0.81193 0.51162,0.0758 1.00263,0.18016 1.46505,0.31326 3.35478,0.9634 5.35782,3.37843 5.35782,6.45655 z m 4.09872,-31.6223 c -5.66572,-7.20288 -14.7697,-3.99916 -17.4252,-2.84547 -0.10186,0.0445 -0.18766,0.0165 -0.22886,-0.008 -0.042,-0.0206 -0.11794,-0.0725 -0.14423,-0.18196 l -0.76231,-3.16705 h 3.98433 V 8.3729344 h -4.26586 v -4.532541 h -7.01061 v 4.532541 h -4.26585 v 7.0930226 h 3.98425 l -0.76224,3.16705 c -0.0264,0.10985 -0.10194,0.16136 -0.14422,0.18196 -0.0412,0.0214 -0.12708,0.0503 -0.22894,0.008 -2.65774,-1.15369 -11.75949,-4.35741 -17.42521,2.84547 -0.30789,0.35825 -6.17959,7.39631 1.50742,16.93872 l 7.04835,7.61091 c -3.32041,1.11488 -5.35667,3.77269 -5.35667,7.07267 v 2.49068 c 0,0.84069 0.68337,1.52472 1.52464,1.52472 h 35.13078 c 0.84011,0 1.52455,-0.68403 1.52455,-1.52472 v -2.49068 c 0,-3.25836 -1.97898,-5.84291 -5.32914,-7.01523 l 7.12047,-7.64659 0.0181,-0.0214 c 7.6859,-9.54242 1.81415,-16.58278 1.50626,-16.93872"
       style="fill:#000000;fill-opacity:1;fill-rule:nonzero;stroke:none;stroke-width:0.133333" />
    <path
       id="path52"
       d="m 310.04225,53.290737 v 2.49068 c 0,0.40992 -0.33196,0.74147 -0.74171,0.74147 h -35.13078 c -0.40976,0 -0.74171,-0.33155 -0.74171,-0.74147 v -2.49068 c 0,-3.1251 2.06485,-5.61586 5.38872,-6.50081 0.44635,-0.12015 0.92369,-0.20891 1.42039,-0.26636 l 0.48763,-0.0519 c 3.18081,-0.35256 6.78629,-0.74938 10.77746,-0.7624 h 0.24032 c 3.83326,0 7.69158,0.27411 11.47681,0.81193 0.51162,0.0758 1.00263,0.18016 1.46505,0.31326 3.35478,0.9634 5.35782,3.37843 5.35782,6.45655"
       style="fill:#565352;fill-opacity:1;fill-rule:nonzero;stroke:none;stroke-width:0.133333" />
    <path
       id="path53"
       d="m 301.7188,36.876577 c -0.49678,0.49101 -1.07021,0.87217 -1.69745,1.1274 -0.62609,0.2587 -1.30023,0.39484 -1.99497,0.39484 h -0.53684 c -0.64785,0 -1.18007,-0.5276 -1.18353,-1.1743 l -0.0363,-7.88732 c 0,-0.56658 0.28729,-1.10227 0.76232,-1.40555 3.97394,-2.51351 6.39136,-1.62304 7.47987,-0.86879 0.7657,0.52999 1.23496,1.26825 1.29223,2.02818 0.20711,2.88782 -2.10606,5.82716 -4.08504,7.78554 z m -14.53169,0.34794 c -0.008,0.6467 -0.53568,1.1743 -1.18344,1.1743 h -0.5403 c -1.3861,0 -2.69663,-0.54021 -3.68897,-1.52455 -1.9756,-1.95607 -4.29222,-4.89541 -4.08503,-7.78323 0.0569,-0.75993 0.52422,-1.49819 1.28646,-2.02818 1.09082,-0.75425 3.51392,-1.64472 7.48218,0.86879 0.47503,0.30328 0.768,0.84127 0.76578,1.40555 z m 26.36098,-15.041 -0.0181,-0.0214 c -5.31777,-6.77483 -13.97309,-3.71764 -16.50036,-2.61768 -0.2873,0.12247 -0.61349,0.11447 -0.89278,-0.0264 -0.2793,-0.13853 -0.48302,-0.39492 -0.55629,-0.70051 l -0.99233,-4.131929 h 4.19374 V 9.1583334 h -4.26701 v -4.532541 h -5.44254 v 4.532541 h -4.26701 v 5.5272646 h 4.19383 l -0.99242,4.131929 c -0.0734,0.30559 -0.27699,0.56198 -0.55628,0.70051 -0.27922,0.14076 -0.60541,0.14876 -0.89278,0.0264 -2.52719,-1.09996 -11.18145,-4.15715 -16.50029,2.61768 l -0.0181,0.0214 c -0.24262,0.269 -5.88999,6.71986 1.51665,15.92233 l 7.28751,7.86951 c 0.11217,-0.0288 0.22895,-0.0495 0.34688,-0.0734 0.0758,-0.0157 0.15106,-0.0338 0.23001,-0.047 0.23694,-0.0445 0.48303,-0.0808 0.73026,-0.10969 l 0.48871,-0.0552 c 3.20141,-0.35256 6.82749,-0.75201 10.86102,-0.76503 h 0.24263 c 0.31819,0 0.63754,0.008 0.95343,0.008 0.10879,0 0.21864,0 0.3285,0 2.42772,0.0396 4.8645,0.18542 7.28183,0.43868 0.0305,0 0.0593,0.008 0.0917,0.008 0.42228,0.0445 0.84234,0.094 1.26586,0.1462 0.0676,0.008 0.13853,0.0157 0.20834,0.0239 0.48648,0.0602 0.97173,0.12535 1.45705,0.19573 0.25639,0.0363 0.50363,0.0808 0.74971,0.13318 0.0775,0.0157 0.15337,0.0338 0.23233,0.0519 0.11677,0.0288 0.24039,0.0519 0.35487,0.0835 l 7.36762,-7.91122 c 7.40438,-9.20246 1.75696,-15.65333 1.51434,-15.92232"
       style="fill:#565352;fill-opacity:1;fill-rule:nonzero;stroke:none;stroke-width:0.133333" />
    <path
       id="path54"
       d="m 279.03657,17.898137 c -0.80699,0.21518 -5.99084,1.69284 -8.66571,7.02207 -2.46316,4.90455 -1.01755,9.52527 -0.72449,10.40313 0,0 -3.49785,-5.20445 -0.99926,-10.86555 0,0 2.89006,-6.71187 10.38946,-6.55965"
       style="fill:#888685;fill-opacity:1;fill-rule:nonzero;stroke:none;stroke-width:0.133333" />
    <path
       id="path55"
       d="m 284.80522,14.685352 0.44874,-0.564281 V 9.7212134 h 4.23264 v -4.466115 h 4.58067 l 0.4475,-0.629552 h -5.44254 v 4.532541 h -4.26701 v 5.5272646"
       style="fill:#888685;fill-opacity:1;fill-rule:nonzero;stroke:none;stroke-width:0.133333" />
    <path
       id="path56"
       d="m 294.51477,9.1580874 -0.34679,0.646692 h 4.6138 v -0.646692 h -4.26701"
       style="fill:#888685;fill-opacity:1;fill-rule:nonzero;stroke:none;stroke-width:0.133333" />
    <path
       id="path57"
       d="m 312.37486,20.890137 c 0,0 4.58982,5.54209 0.70167,12.36151 -1.6265,2.85346 -3.97856,5.692 -6.53213,7.82213 -2.74014,2.28341 -5.50089,4.38065 -5.50089,4.38065 l 3.62262,0.56264 6.52636,-7.00699 c 0,0 4.31052,-4.50279 4.60473,-9.35015 0.30097,-4.94007 -2.23083,-7.78546 -3.42236,-8.76979"
       style="fill:#454242;fill-opacity:1;fill-rule:nonzero;stroke:none;stroke-width:0.133333" />
    <path
       id="path58"
       d="m 309.31537,50.309207 c -5.10135,-1.42286 -15.52625,-1.34193 -24.51015,-1.23232 -6.43257,0.0808 -9.64659,1.53519 -11.22034,2.76487 0.53791,-2.43324 2.44139,-4.30789 5.23189,-5.05183 0.44635,-0.12015 0.92369,-0.20891 1.42039,-0.26636 l 0.48763,-0.0519 c 3.18081,-0.35256 6.78629,-0.74938 10.77746,-0.7624 h 0.24032 c 3.83326,0 7.69158,0.27411 11.47681,0.81193 0.51162,0.0758 1.00263,0.18016 1.46505,0.31326 2.16671,0.62139 3.77022,1.85115 4.63094,3.47502"
       style="fill:#888685;fill-opacity:1;fill-rule:nonzero;stroke:none;stroke-width:0.133333" />
  </g>
  <g
     id="g15"
     inkscape:label="Rook (white)"
     transform="translate(-66.878,-13.412842)">
    <path
       id="path59"
       d="m 49.797177,130.94209 h -37.25587 v -3.31819 c 0,-3.71756 3.02323,-6.74162 6.74096,-6.74162 h 23.77387 c 3.71789,0 6.74104,3.02406 6.74104,6.74162 z M 20.360637,100.2466 c 0.2793,0.0404 0.56395,0.061 0.85363,0.061 h 19.33298 c 0.37852,0 0.74674,-0.0371 1.10689,-0.10186 l 2.54029,19.97983 c -0.37069,-0.0569 -0.75185,-0.0858 -1.13829,-0.0858 h -23.77387 c -0.39154,0 -0.77534,0.0288 -1.14867,0.0893 z m -4.4854,-6.064013 -0.60573,-5.97394 c -0.0734,-0.72318 0.16449,-1.44643 0.65279,-1.98434 0.48549,-0.5403 1.18007,-0.84844 1.90579,-0.84844 h 3.27649 c 0.55884,0 1.04961,0.37333 1.19837,0.91124 l 1.28456,4.63111 2.53774,-0.0905 0.23496,-5.88519 c 0.0181,-0.43085 0.36806,-0.76759 0.79891,-0.76759 h 7.51119 c 0.41256,0 0.75457,0.3107 0.79372,0.72054 l 0.59518,5.95515 3.02332,-0.0858 0.69713,-4.342 c 0.0966,-0.60838 0.61348,-1.04698 1.22704,-1.04698 h 2.92665 c 0.72581,0 1.4203,0.30814 1.90851,0.84844 0.48566,0.53791 0.72326,1.26117 0.65016,1.98434 l -0.6031,5.9338 v 0.0404 c 0,2.94495 -2.39409,5.34177 -5.33903,5.34177 h -19.33298 c -2.94486,0 -5.33903,-2.39682 -5.33903,-5.34177 z m 29.1312,26.173243 -2.58726,-20.34394 c 2.45672,-0.790903 4.24253,-3.093773 4.25036,-5.808703 l 0.60046,-5.91625 c 0.0966,-0.94247 -0.21148,-1.88503 -0.84853,-2.58991 -0.63441,-0.70232 -1.54038,-1.10441 -2.48812,-1.10441 h -2.92665 c -0.99991,0 -1.84316,0.71798 -1.99983,1.70487 l -0.59535,3.70471 -1.64471,0.047 -0.52217,-5.23206 c -0.0808,-0.81193 -0.75984,-1.4255 -1.57433,-1.4255 h -7.51119 c -0.85371,0 -1.54829,0.66837 -1.58216,1.51945 l -0.20628,5.16151 -1.19309,0.042 -1.12007,-4.03625 c -0.24279,-0.87456 -1.04434,-1.48557 -1.95294,-1.48557 h -3.27649 c -0.94502,0 -1.85363,0.40209 -2.48812,1.10441 -0.63442,0.70488 -0.94503,1.64743 -0.84844,2.58991 l 0.60046,5.91624 c 0.008,2.8065 1.91371,5.17233 4.49842,5.884283 l -2.26363,20.27059 c -3.20339,0.86418 -5.56872,3.79321 -5.56872,7.26584 v 4.10111 h 38.82238 v -4.10111 c 0,-3.47493 -2.36789,-6.40735 -5.574,-7.26807"
       style="fill:#231f20;fill-opacity:1;fill-rule:nonzero;stroke:none;stroke-width:0.133333" />
    <path
       id="path60"
       d="m 49.797177,127.6239 v 3.31819 h -37.25587 v -3.31819 c 0,-3.71756 3.02323,-6.74162 6.74096,-6.74162 h 23.77387 c 3.71789,0 6.74104,3.02406 6.74104,6.74162"
       style="fill:#f8f8f8;fill-opacity:1;fill-rule:nonzero;stroke:none;stroke-width:0.133333" />
    <path
       id="path61"
       d="m 44.194427,120.18523 c -0.37069,-0.0569 -0.75185,-0.0858 -1.13829,-0.0858 h -23.77387 c -0.39154,0 -0.77534,0.0289 -1.14867,0.0893 l 2.22704,-19.9421 c 0.2793,0.0404 0.56395,0.061 0.85363,0.061 h 19.33298 c 0.37852,0 0.74674,-0.0371 1.10689,-0.10186 l 2.54029,19.97983"
       style="fill:#f8f8f8;fill-opacity:1;fill-rule:nonzero;stroke:none;stroke-width:0.133333" />
    <path
       id="path62"
       d="m 46.492017,88.208647 -0.6031,5.9338 v 0.0404 c 0,2.94495 -2.39409,5.34177 -5.33903,5.34177 h -19.33298 c -2.94486,0 -5.33903,-2.39682 -5.33903,-5.34177 l -0.60565,-5.97394 c -0.0734,-0.72317 0.16441,-1.44642 0.6527,-1.98433 0.48558,-0.5403 1.18007,-0.84844 1.90588,-0.84844 h 3.27649 c 0.55876,0 1.04961,0.37333 1.19837,0.91124 l 1.28456,4.6311 2.53766,-0.0905 0.23504,-5.88518 c 0.0181,-0.43085 0.36806,-0.76759 0.79891,-0.76759 h 7.51119 c 0.41256,0 0.75449,0.31069 0.79363,0.72053 l 0.59519,5.95515 3.02331,-0.0858 0.69722,-4.342 c 0.0966,-0.60837 0.61348,-1.04697 1.22696,-1.04697 h 2.92673 c 0.72581,0 1.4203,0.30814 1.90851,0.84844 0.48558,0.53791 0.72326,1.26116 0.65008,1.98434"
       style="fill:#f8f8f8;fill-opacity:1;fill-rule:nonzero;stroke:none;stroke-width:0.133333" />
    <path
       id="path63"
       d="m 24.925157,100.33586 c 0,0 12.68836,1.05983 13.77983,10.30127 0.96152,8.14025 1.41602,9.46231 1.41602,9.46231 l 4.07342,0.0858 -2.54029,-19.97983 -0.98022,0.10186 c -0.0569,0.008 -0.11455,0.008 -0.172,0.008 l -15.57676,0.0206"
       style="fill:#d3d3d3;fill-opacity:1;fill-rule:nonzero;stroke:none;stroke-width:0.133333" />
    <path
       id="path64"
       d="m 42.675397,97.466327 c -1.29693,0.98665 -2.83657,1.53264 -2.83657,1.53264 -0.87424,0.3102 -1.64875,0.45442 -2.22531,0.52538 0,0 4.29939,0.28266 5.26107,-0.53569 2.61405,-0.86071 3.06378,-3.8252 3.27129,-6.67182 0.13936,-1.91403 0.3524,-4.18574 0.3524,-4.18574 -0.27097,4.54399 -2.05842,7.99379 -3.82288,9.33523"
       style="fill:#d3d3d3;fill-opacity:1;fill-rule:nonzero;stroke:none;stroke-width:0.133333" />
    <path
       id="path65"
       d="m 49.773697,126.87996 c -0.36542,-3.37654 -3.23215,-6.0102 -6.70181,-6.0102 h -11.90264 -11.90264 c -3.46966,0 -6.33631,2.63366 -6.70189,6.0102 -0.0264,0.24031 -0.0107,0.45096 0.18015,-0.2507 0.23504,-0.86188 0.78853,-1.58521 1.47255,-2.13581 1.13038,-0.91338 2.54804,-1.38948 3.99975,-1.43069 2.47493,-0.0709 7.65475,-0.19804 12.95208,-0.22433 5.29733,0.0264 10.47714,0.15337 12.95216,0.22433 1.45162,0.0412 2.86929,0.51731 3.99966,1.43069 0.68411,0.5506 1.23751,1.27393 1.47247,2.13581 0.19062,0.70166 0.20628,0.49101 0.18016,0.2507"
       style="fill:#ffffff;fill-opacity:1;fill-rule:nonzero;stroke:none;stroke-width:0.133333" />
  </g>
  <g
     id="g5"
     inkscape:label="Pawn (white)"
     transform="translate(-451.14617,-13.085262)">
    <path
       id="path66"
       d="m 369.975,130.61359 h -33.05562 c -0.44634,-3.67067 0.82751,-5.92095 1.5956,-7.28076 0.95796,-1.68361 2.1724,-2.57755 3.58248,-3.60886 1.26825,-0.93168 2.70924,-1.98928 4.12172,-3.8092 1.48796,-1.92055 2.55125,-4.16853 3.16242,-6.68088 l -0.38107,-0.48302 h -4.01293 c -0.40753,0 -0.76001,-0.27584 -0.85957,-0.67076 l -0.43613,-1.74897 c -0.0836,-0.5356 0.18082,-1.06559 0.66046,-1.32421 l 4.02661,-2.18732 0.0651,-0.64446 c -1.77295,-1.49596 -2.7882,-3.688963 -2.7882,-6.010213 0,-4.34257 3.53214,-7.87437 7.87356,-7.87437 4.34143,0 7.87479,3.5318 7.87479,7.87437 0,2.40482 -1.07589,4.644793 -2.95309,6.145283 l 0.0676,0.65584 3.76223,1.91379 c 0.53569,0.27122 0.81498,0.89047 0.66046,1.47997 l -0.41553,1.71567 c -0.0939,0.39608 -0.44865,0.67538 -0.85841,0.67538 h -3.5173 l -0.38577,0.45211 c 0.37316,2.36237 1.18815,4.47757 2.41972,6.29173 1.44676,2.13012 3.11554,3.29989 4.58521,4.33112 1.48565,1.04162 2.88436,2.02365 3.8584,3.83327 0.70735,1.32083 1.8828,3.50353 1.34712,6.95449 z m -0.65814,-7.32535 c -1.05983,-1.97329 -2.53519,-3.00798 -4.09642,-4.10449 -1.48796,-1.04161 -3.0229,-2.11751 -4.3884,-4.1274 -1.08851,-1.60358 -1.82783,-3.45894 -2.2113,-5.52149 h 3.04689 c 0.77262,0 1.44107,-0.52538 1.62073,-1.27732 l 0.41321,-1.7066 c 0.24263,-0.93514 -0.20603,-1.93209 -1.06559,-2.3716 l -3.24262,-1.64932 c 1.78094,-1.6345 2.79388,-3.921363 2.79388,-6.365083 0,-4.77293 -3.88469,-8.65763 -8.65763,-8.65763 -4.77294,0 -8.65764,3.8847 -8.65764,8.65763 0,2.36246 0.95805,4.602433 2.64743,6.228853 l -3.5402,1.92409 c -0.77831,0.42121 -1.20068,1.28531 -1.05761,2.15641 l 0.44643,1.79693 c 0.18535,0.74403 0.85157,1.26364 1.61958,1.26364 h 3.50015 c -0.59749,2.20561 -1.56584,4.19267 -2.89013,5.90035 -1.34143,1.73289 -2.67603,2.7127 -3.9648,3.65698 -1.41816,1.04269 -2.75737,2.02365 -3.7989,3.85379 -0.7863,1.39187 -2.25028,3.98202 -1.64249,8.11742 l 0.047,0.33418 h 34.39483 l 0.0593,-0.32157 c 0.70735,-3.90761 -0.64669,-6.43257 -1.3758,-7.78777"
       style="fill:#231f20;fill-opacity:1;fill-rule:nonzero;stroke:none;stroke-width:0.133333" />
    <path
       id="path67"
       d="m 369.975,130.61359 h -33.05562 c -0.44634,-3.67067 0.82751,-5.92095 1.5956,-7.28076 0.95796,-1.68361 2.1724,-2.57755 3.58248,-3.60886 1.26825,-0.93168 2.70924,-1.98928 4.12172,-3.8092 1.48796,-1.92055 2.55125,-4.16853 3.16242,-6.68088 l -0.38107,-0.48302 h -4.01293 c -0.40753,0 -0.76001,-0.27584 -0.85957,-0.67076 l -0.43613,-1.74897 c -0.0836,-0.5356 0.18082,-1.06559 0.66046,-1.32421 l 4.02661,-2.18732 0.0651,-0.64446 c -1.77295,-1.49596 -2.7882,-3.688963 -2.7882,-6.010213 0,-4.34257 3.53214,-7.87437 7.87356,-7.87437 4.34143,0 7.87479,3.5318 7.87479,7.87437 0,2.40482 -1.07589,4.644793 -2.95309,6.145283 l 0.0676,0.65584 3.76223,1.91379 c 0.53569,0.27122 0.81498,0.89047 0.66046,1.47997 l -0.41553,1.71567 c -0.0939,0.39608 -0.44865,0.67538 -0.85841,0.67538 h -3.5173 l -0.38577,0.45211 c 0.37316,2.36237 1.18815,4.47757 2.41972,6.29173 1.44676,2.13012 3.11554,3.29989 4.58521,4.33112 1.48565,1.04162 2.88436,2.02365 3.8584,3.83327 0.70735,1.32083 1.8828,3.50353 1.34712,6.95449"
       style="fill:#f8f8f8;fill-opacity:1;fill-rule:nonzero;stroke:none;stroke-width:0.133333" />
    <path
       id="path68"
       d="m 357.3445,89.277787 c 0,0 7.51769,8.8879 -4.5257,13.064493 l 5.6325,-0.0321 c 0,0 3.00461,-2.27995 2.95195,-6.145283 0,0 0.28844,-4.35395 -4.05875,-6.88715"
       style="fill:#d3d3d3;fill-opacity:1;fill-rule:nonzero;stroke:none;stroke-width:0.133333" />
    <path
       id="path69"
       d="m 358.51888,102.96499 c 0,0 3.54136,3.79544 -0.36855,5.78588 h 3.51845 c 0,0 0.67991,0.0659 0.85841,-0.67538 0.17974,-0.74278 0.41437,-1.71567 0.41437,-1.71567 0.0173,-0.0893 0.0511,-0.29306 0.0346,-0.46588 -0.0461,-0.44181 -0.0618,-0.38231 -0.42929,-0.83327 -0.56651,-0.39946 -1.83929,-0.90193 -4.02776,-2.09568"
       style="fill:#d3d3d3;fill-opacity:1;fill-rule:nonzero;stroke:none;stroke-width:0.133333" />
    <path
       id="path70"
       d="m 349.00053,108.75087 h 9.1498 c 0,0 -0.14307,0.1682 -0.38578,0.45211 0.11448,0.81605 0.24271,1.58291 1.36435,4.45697 1.16293,2.49868 2.26174,3.63062 5.72868,6.22769 1.57614,1.18122 2.15641,1.6837 2.15641,1.6837 -3.25176,-0.86188 -7.88962,-2.54788 -12.57438,-6.02166 -2.24229,-1.66309 -4.03353,-3.39368 -5.43908,-4.9629 l 0.38107,-1.35289 -0.38107,-0.48302"
       style="fill:#d3d3d3;fill-opacity:1;fill-rule:nonzero;stroke:none;stroke-width:0.133333" />
  </g>
  <g
     id="g9"
     inkscape:label="Queen (white)"
     transform="translate(-75.228463,-13.190592)">
    <path
       id="path71"
       d="m 246.03465,100.80858 -0.3079,0.24493 -7.63439,19.21076 c -0.0651,-0.0214 -0.12815,-0.0404 -0.18996,-0.061 -3.54367,-1.06782 -8.13802,-1.21666 -12.579,-1.21666 -4.74435,0 -10.08041,0.49102 -12.31232,1.11258 l -7.43297,-19.06885 -0.34449,-0.2507 c -2.68179,-0.14875 -4.78093,-2.373813 -4.78093,-5.062463 0,-2.79849 2.27657,-5.07555 5.07276,-5.07555 2.79849,0 5.07506,2.27706 5.07506,5.07555 0,0.99696 -0.28614,1.95839 -0.83204,2.78021 l 0.0387,0.48302 5.51688,5.945013 c 0.0882,0.0961 0.21065,0.14645 0.33649,0.14645 0.0552,0 0.10994,-0.008 0.16483,-0.0289 0.17513,-0.0651 0.29191,-0.2301 0.29759,-0.41775 l 0.35257,-13.934193 -0.24609,-0.3735 c -1.93209,-0.77534 -3.17965,-2.62633 -3.17965,-4.70989 0,-2.7961 2.27657,-5.07268 5.07276,-5.07268 2.79857,0 5.07514,2.27658 5.07514,5.07268 0,1.5065 -0.66276,2.92409 -1.81992,3.89277 l -0.12247,0.4203 3.76454,11.582053 c 0.061,0.18996 0.23578,0.3182 0.43613,0.3182 0.19911,0 0.37654,-0.12593 0.43605,-0.31589 l 3.83549,-11.633973 -0.11447,-0.42039 c -1.1228,-0.96324 -1.76496,-2.36261 -1.76496,-3.84307 0,-2.7961 2.27666,-5.07268 5.07284,-5.07268 2.7985,0 5.07507,2.27658 5.07507,5.07268 0,2.17224 -1.38149,4.10416 -3.43373,4.80384 l -0.26554,0.39171 0.75886,13.429423 c 0.0115,0.19111 0.13392,0.35025 0.31136,0.41091 0.0494,0.0181 0.0995,0.0255 0.14875,0.0255 0.13046,0 0.25869,-0.0569 0.35026,-0.16136 l 4.9629,-5.832763 0.0445,-0.44066 c -0.41091,-0.74402 -0.62725,-1.59329 -0.62725,-2.44948 0,-2.7985 2.27658,-5.07507 5.07284,-5.07507 2.7985,0 5.07507,2.27657 5.07507,5.07507 0,2.51467 -1.87366,4.675693 -4.35972,5.023633 z M 245.3193,89.926537 c -3.23,0 -5.85576,2.62955 -5.85576,5.8584 0,0.89856 0.20834,1.78334 0.5998,2.58225 l -4.27046,5.017863 -0.69705,-12.338683 c 2.21361,-0.88487 3.68327,-3.03098 3.68327,-5.43818 0,-3.22943 -2.62913,-5.85592 -5.85798,-5.85592 -3.23001,0 -5.85683,2.62649 -5.85683,5.85592 0,1.61867 0.66845,3.1565 1.84044,4.26091 l -3.44519,10.452993 -3.37876,-10.398183 c 1.21098,-1.10961 1.89995,-2.66565 1.89995,-4.31572 0,-3.22943 -2.6279,-5.85592 -5.85799,-5.85592 -3.23001,0 -5.85568,2.62649 -5.85568,5.85592 0,2.31325 1.33344,4.37316 3.42005,5.32371 l -0.32965,12.878893 -4.77525,-5.146013 c 0.52539,-0.89055 0.80238,-1.90003 0.80238,-2.94734 0,-3.23 -2.62914,-5.85881 -5.85914,-5.85881 -3.22886,0 -5.85568,2.62881 -5.85568,5.85881 0,3.0183 2.29256,5.521503 5.2628,5.819093 l 7.33103,18.80784 c -2.62567,0.94544 -5.86367,2.63252 -5.86367,6.2998 v 4.85874 h 37.84685 v -4.85874 c 0,-3.59171 -2.71838,-5.19761 -5.41048,-6.13497 l 7.5383,-18.96698 c 2.75382,-0.50132 4.80384,-2.932413 4.80384,-5.757283 0,-3.22885 -2.62913,-5.8584 -5.85914,-5.8584 z m -1.96645,35.618823 c 0.0733,0.34795 0.10994,0.71304 0.10994,1.09881 v 4.0759 h -36.27887 v -4.0759 c 0,-2.54787 1.81646,-4.35749 5.71953,-5.69316 1.86682,-0.63985 7.55314,-1.18007 12.41995,-1.18007 4.38032,0 8.90825,0.14307 12.35121,1.18461 3.43604,1.037 5.23758,2.47807 5.67824,4.58981"
       style="fill:#231f20;fill-opacity:1;fill-rule:nonzero;stroke:none;stroke-width:0.133333" />
    <path
       id="path72"
       d="m 250.39437,95.784937 c 0,2.51467 -1.87366,4.675693 -4.35972,5.023643 l -0.3079,0.24493 -7.63439,19.21076 c -0.0651,-0.0214 -0.12815,-0.0404 -0.18996,-0.061 -3.54367,-1.06782 -8.13802,-1.21666 -12.579,-1.21666 -4.74435,0 -10.08041,0.49102 -12.31232,1.11258 l -7.43297,-19.06885 -0.34449,-0.2507 c -2.68179,-0.14875 -4.78093,-2.373813 -4.78093,-5.062463 0,-2.79849 2.27657,-5.07555 5.07276,-5.07555 2.79849,0 5.07506,2.27706 5.07506,5.07555 0,0.99696 -0.28614,1.95839 -0.83204,2.78021 l 0.0387,0.48302 5.51688,5.945013 c 0.0882,0.0961 0.21065,0.14645 0.33649,0.14645 0.0552,0 0.10994,-0.008 0.16483,-0.0289 0.17513,-0.0651 0.29191,-0.2301 0.29759,-0.41775 l 0.35257,-13.934193 -0.24609,-0.3735 c -1.93209,-0.77534 -3.17965,-2.62633 -3.17965,-4.70989 0,-2.7961 2.27657,-5.07268 5.07276,-5.07268 2.79857,0 5.07514,2.27658 5.07514,5.07268 0,1.5065 -0.66276,2.92409 -1.81992,3.89277 l -0.12247,0.4203 3.76454,11.582053 c 0.061,0.18996 0.23578,0.3182 0.43613,0.3182 0.19911,0 0.37654,-0.12593 0.43605,-0.31589 l 3.83549,-11.633973 -0.11447,-0.42039 c -1.1228,-0.96324 -1.76496,-2.36261 -1.76496,-3.84307 0,-2.7961 2.27666,-5.07268 5.07284,-5.07268 2.7985,0 5.07507,2.27658 5.07507,5.07268 0,2.17224 -1.38149,4.10416 -3.43373,4.80384 l -0.26554,0.39171 0.75886,13.429423 c 0.0115,0.19111 0.13392,0.35025 0.31136,0.41091 0.0494,0.0181 0.0995,0.0255 0.14875,0.0255 0.13046,0 0.25869,-0.0569 0.35026,-0.16136 l 4.9629,-5.832763 0.0445,-0.44066 c -0.41091,-0.74402 -0.62725,-1.59329 -0.62725,-2.44948 0,-2.7985 2.27658,-5.07507 5.07284,-5.07507 2.7985,0 5.07507,2.27657 5.07507,5.07507"
       style="fill:#f8f8f8;fill-opacity:1;fill-rule:nonzero;stroke:none;stroke-width:0.133333" />
    <path
       id="path73"
       d="m 243.35285,125.54536 c -0.89278,-1.90002 -5.56262,-2.23198 -12.96238,-2.49867 -7.39861,-0.26553 -15.33291,0.33196 -18.73236,0.53338 -3.39936,0.20034 -4.47419,3.0641 -4.47419,3.0641 0,-2.54787 1.81646,-4.35749 5.71953,-5.69316 1.86682,-0.63985 7.55314,-1.18007 12.41995,-1.18007 4.38032,0 8.90825,0.14307 12.35121,1.18461 3.43604,1.037 5.23758,2.47807 5.67824,4.58981"
       style="fill:#ffffff;fill-opacity:1;fill-rule:nonzero;stroke:none;stroke-width:0.133333" />
    <path
       id="path74"
       d="m 248.71867,92.019247 c 0,0 1.32544,5.52612 -3.79775,6.69704 0,0 -0.59972,0.13277 -0.89962,0.99916 -0.2999,0.866493 -4.03238,7.931993 -9.09829,13.798053 -5.06592,5.86598 -8.53286,5.47798 -8.53286,5.47798 0,0 4.90562,-0.27814 11.70221,1.27163 l 7.63324,-19.21076 c 0,0 0.23924,-0.18196 0.30905,-0.24262 0.0701,-0.061 3.5093,-0.23578 4.30936,-4.309363 0,0 0.57112,-2.3121 -1.62534,-4.48112"
       style="fill:#d3d3d3;fill-opacity:1;fill-rule:nonzero;stroke:none;stroke-width:0.133333" />
    <path
       id="path75"
       d="m 243.46279,130.72007 h -36.27887 v -4.0759 c 0,0 1.07483,-2.86376 4.47419,-3.0641 3.39945,-0.20142 11.33375,-0.79891 18.73236,-0.53338 7.39976,0.26669 12.0696,0.59865 12.96238,2.49867 l 0.10994,5.17471"
       style="fill:#f8f8f8;fill-opacity:1;fill-rule:nonzero;stroke:none;stroke-width:0.133333" />
    <path
       id="path76"
       d="m 208.61469,91.694217 c 0,0 1.04384,1.97782 -0.17743,4.02207 -1.18576,1.9836 0.0445,3.62148 0.80006,4.288763 0.75548,0.66614 2.82256,1.40325 2.82256,1.40325 l -2.25251,-2.427633 -0.0387,-0.48302 c 0,0 0.85496,-1.0473 0.82867,-2.98055 -0.0272,-1.93431 -1.32084,-3.36731 -1.98245,-3.82288"
       style="fill:#d3d3d3;fill-opacity:1;fill-rule:nonzero;stroke:none;stroke-width:0.133333" />
    <path
       id="path77"
       d="m 221.74198,82.056357 c 0,0 0.35479,3.4634 -1.51771,5.34052 -2.43687,2.44338 3.21624,9.24656 3.21624,9.24656 l -2.18501,-6.72217 0.12246,-0.42031 c 0,0 0.75433,-0.59378 1.28424,-1.62304 0.7348,-1.42566 1.11142,-3.63745 -0.92022,-5.82156"
       style="fill:#d3d3d3;fill-opacity:1;fill-rule:nonzero;stroke:none;stroke-width:0.133333" />
    <path
       id="path78"
       d="m 236.80474,82.348347 c 0,0 0.49555,3.83558 -2.74822,5.03551 -3.24484,1.19985 0.65815,10.80589 0.65815,10.80589 l -0.41775,-7.38601 0.26553,-0.3917 c 0,0 1.95154,-0.53223 2.98854,-2.73009 1.03815,-2.19795 0,-4.36978 -0.74625,-5.3336"
       style="fill:#d3d3d3;fill-opacity:1;fill-rule:nonzero;stroke:none;stroke-width:0.133333" />
  </g>
  <g
     id="g13"
     inkscape:label="Knight (white)"
     transform="translate(-68.710936,-12.986852)">
    <path
       id="path79"
       d="m 115.94212,129.55598 c 0,0.52992 -0.43151,0.96028 -0.96142,0.96028 H 80.497527 c -0.52992,0 -0.96077,-0.43036 -0.96077,-0.96028 v -2.74475 c 0,-2.95525 2.00774,-5.50312 4.88477,-6.19448 0.30806,-0.0626 11.221175,-2.25366 27.196393,0.16367 2.58785,0.88017 4.3242,3.30096 4.3242,6.03081 z m -29.510293,-13.3756 c 1.43852,-2.34646 3.3706,-3.92136 5.24508,-5.446 1.37061,-1.1148 2.665645,-2.16672 3.668205,-3.45895 1.41766,-1.82215 1.32107,-3.85379 0.75712,-5.14833 -0.042,-0.0995 -0.0709,-0.17051 -0.0915,-0.22548 -0.0887,-0.23232 -0.13821,-0.3102 -0.37062,-0.50593 -0.10449,-0.0835 -0.22984,-0.12816 -0.35767,-0.12816 -0.14628,0 -0.2924,0.061 -0.40209,0.17282 -0.43085,0.45674 -4.268655,4.47189 -6.203215,4.95491 -0.73892,0.18312 -1.35503,0.15914 -1.89805,0.13623 -0.9869,-0.0404 -1.84061,-0.0734 -2.59774,1.25564 -0.72317,1.26355 -1.54301,2.11974 -1.96596,2.5192 -0.15922,0.15106 -0.3655,0.24493 -0.5848,0.26668 -3.12517,0.2976 -5.25555,-1.14685 -6.58709,-2.25827 -1.47766,-1.23043 -0.98154,-2.80196 -0.92162,-2.97131 0.16449,-0.39715 3.1827,-5.790483 4.48021,-6.534433 1.5534,-0.88593 3.63679,-7.44897 3.86137,-8.57695 0.24007,-1.19845 2.28184,-2.95813 3.63679,-4.12509 l 0.14365,-0.12535 c 0.7727,-0.66837 0.83805,-1.4803 0.90324,-2.2713 0.0758,-0.91124 0.15412,-1.85116 1.12263,-2.95294 0.36031,-0.41239 0.89558,-0.87975 1.39162,-0.78061 0.59527,0.12016 0.92163,0.97379 0.9555,1.07038 l 0.0288,0.0808 3.234795,3.29214 c 0.33674,0.33938 0.77798,0.55085 1.24006,0.59519 2.66301,0.2741 7.088318,1.88766 10.391018,4.44098 4.25555,3.28951 6.84001,7.66531 7.9033,13.372223 1.09313,5.88543 -1.27163,14.71251 -1.97667,17.13445 -14.161148,-2.10144 -24.343173,-0.61348 -26.677193,-0.20603 0.21139,-1.16408 1.23488,-2.91296 1.67084,-3.5768 z m 25.766363,3.97626 c 0.72565,-2.5009 3.10869,-11.44245 1.9836,-17.46864 -1.09882,-5.908413 -3.77715,-10.437503 -8.18986,-13.852853 -3.42013,-2.64207 -8.017768,-4.31299 -10.793018,-4.59757 -0.28202,-0.0288 -0.55349,-0.15922 -0.75977,-0.36813 l -3.117265,-3.17207 c -0.13837,-0.34465 -0.60046,-1.30542 -1.50387,-1.48821 -0.69441,-0.13838 -1.41248,0.20628 -2.1382,1.03131 -1.13565,1.29495 -1.23488,2.46464 -1.31317,3.4123 -0.0626,0.74147 -0.1045,1.27666 -0.63713,1.73611 l -0.14365,0.12535 c -1.60293,1.38116 -3.59748,3.10161 -3.88997,4.56633 -0.31588,1.57705 -2.36541,7.41214 -3.48021,8.04853 -1.58999,0.90877 -4.76206,6.729003 -4.8326,6.947643 -0.0783,0.23001 -0.72573,2.27195 1.1593,3.8378 1.43851,1.20405 3.74377,2.76528 7.16134,2.43563 0.39427,-0.0363 0.76751,-0.20604 1.04953,-0.47495 0.45426,-0.42813 1.33418,-1.3472 2.10688,-2.7024 0.52473,-0.91338 0.95031,-0.89508 1.88759,-0.85841 0.56659,0.0239 1.26891,0.0527 2.11743,-0.15683 1.97107,-0.49563 5.380825,-3.92137 6.409415,-4.99381 0,0.008 0,0.0124 0.008,0.0206 0.0264,0.0626 0.0577,0.14307 0.10434,0.25523 0.47263,1.08966 0.54829,2.80418 -0.65527,4.35511 -0.9503,1.22242 -2.211305,2.24797 -3.550755,3.33648 -1.92146,1.56353 -3.90563,3.17734 -5.40686,5.62912 -0.18279,0.27699 -1.68658,2.60046 -1.82231,4.16968 -3.07549,0.87448 -5.19547,3.66268 -5.19547,6.88123 v 2.74475 c 0,0.96028 0.78316,1.7432 1.74393,1.7432 h 34.483173 c 0.96151,0 1.74435,-0.78292 1.74435,-1.7432 v -2.74475 c 0,-2.95187 -1.80385,-5.57869 -4.52677,-6.65459"
       style="fill:#000000;fill-opacity:1;fill-rule:nonzero;stroke:none;stroke-width:0.133333" />
    <path
       id="path80"
       d="m 111.43818,119.95291 c -14.161148,-2.10144 -24.343173,-0.61348 -26.677193,-0.20603 0.21139,-1.16408 1.23488,-2.91412 1.67084,-3.5768 1.43852,-2.34646 3.3706,-3.92137 5.24508,-5.446 1.37061,-1.1148 2.665645,-2.16672 3.668205,-3.45895 1.41766,-1.82215 1.32107,-3.85379 0.75712,-5.14833 -0.042,-0.0996 -0.0709,-0.17051 -0.0915,-0.22548 -0.0887,-0.23232 -0.13821,-0.31021 -0.37062,-0.50594 -0.10449,-0.0835 -0.22984,-0.12815 -0.35767,-0.12815 -0.14628,0 -0.2924,0.061 -0.40209,0.17282 -0.43085,0.45673 -4.268655,4.47189 -6.203215,4.95491 -0.73892,0.18312 -1.35503,0.15914 -1.89805,0.13623 -0.9869,-0.0404 -1.84061,-0.0734 -2.59774,1.25564 -0.72317,1.26355 -1.54301,2.11974 -1.96596,2.51919 -0.15922,0.15107 -0.3655,0.24494 -0.5848,0.26669 -3.12517,0.2976 -5.25555,-1.14685 -6.58709,-2.25827 -1.47766,-1.23043 -0.98154,-2.80196 -0.92162,-2.97132 0.16449,-0.39714 3.1827,-5.791633 4.48021,-6.535573 1.5534,-0.88478 3.63679,-7.44782 3.86137,-8.57597 0.24007,-1.19836 2.28184,-2.95804 3.63679,-4.12509 l 0.14365,-0.12535 c 0.7727,-0.66829 0.83805,-1.4803 0.90324,-2.2713 0.0758,-0.91116 0.15412,-1.85116 1.12263,-2.95293 0.36031,-0.4124 0.89558,-0.87968 1.39162,-0.78062 0.59527,0.12024 0.92163,0.97388 0.9555,1.07046 l 0.0288,0.0808 3.234795,3.29223 c 0.33674,0.33938 0.77798,0.55085 1.24006,0.59519 2.66301,0.2741 7.088318,1.88758 10.391018,4.44098 4.25555,3.28959 6.84001,7.66539 7.9033,13.372303 1.09313,5.88543 -1.27163,14.71251 -1.97667,17.13446"
       style="fill:#f8f8f8;fill-opacity:1;fill-rule:nonzero;stroke:none;stroke-width:0.133333" />
    <path
       id="path81"
       d="m 88.007397,91.649547 c 0,0 -0.97775,1.22243 -1.28886,2.68863 0,0 0.8721,-0.57458 3.17743,-0.28844 2.3275,0.28844 2.04417,-2.34984 1.19985,-2.91066 -0.38108,-0.25292 -1.73314,-1.04458 -3.08842,0.51047"
       style="fill:#231f20;fill-opacity:1;fill-rule:nonzero;stroke:none;stroke-width:0.133333" />
    <path
       id="path82"
       d="m 101.80841,87.134557 c 0,0 8.68548,6.95984 7.17461,15.580893 -1.51195,8.62104 -6.39969,12.88689 -7.28851,14.57627 -0.51376,0.97519 -0.24493,1.68716 -0.24493,1.68716 0,0 5.73305,0.26784 9.9886,0.97857 0,0 3.44403,-9.35922 1.88857,-17.44804 0,0 -0.75539,-5.726363 -4.62187,-9.993373 0,0 -2.60458,-3.44865 -6.89647,-5.38148"
       style="fill:#d3d3d3;fill-opacity:1;fill-rule:nonzero;stroke:none;stroke-width:0.133333" />
    <path
       id="path83"
       d="m 115.94212,126.81123 v 2.74475 c 0,0.52992 -0.43151,0.96028 -0.96142,0.96028 H 80.497527 c -0.52992,0 -0.96077,-0.43036 -0.96077,-0.96028 v -2.74475 c 0,-2.95525 2.00774,-5.50312 4.88477,-6.19448 0.30806,-0.0626 11.221175,-2.25366 27.196393,0.16367 2.58785,0.88017 4.3242,3.30096 4.3242,6.03081"
       style="fill:#f8f8f8;fill-opacity:1;fill-rule:nonzero;stroke:none;stroke-width:0.133333" />
    <path
       id="path84"
       d="m 115.4591,124.37329 c -0.57227,-0.41775 -1.12057,-0.47272 -1.12057,-0.47272 -2.70693,-0.92138 -6.14527,-1.44676 -7.94451,-1.56922 -1.80146,-0.12478 -20.199793,-0.47726 -24.063713,0.85618 -0.73892,0.25408 -1.46736,0.54821 -2.16441,0.85726 0.80674,-1.68138 2.33673,-2.96678 4.25563,-3.42804 0.30806,-0.0626 11.221175,-2.25366 27.196393,0.16367 1.77517,0.60318 3.15097,1.93555 3.84118,3.59287"
       style="fill:#ffffff;fill-opacity:1;fill-rule:nonzero;stroke:none;stroke-width:0.133333" />
    <path
       id="path85"
       d="m 94.998642,101.34649 c 0,0 2.42929,-2.630203 2.74056,-4.541683 0.31136,-1.91034 0.84465,1.51087 0.57788,2.66688 -0.26652,1.154843 -0.88371,5.054453 -2.34259,6.794263 0,0 0.52275,-0.96488 0.50956,-2.10606 -0.0124,-1.09304 -0.16787,-1.69737 -0.70141,-2.59592 -0.2929,-0.49332 -0.784,-0.21748 -0.784,-0.21748"
       style="fill:#d3d3d3;fill-opacity:1;fill-rule:nonzero;stroke:none;stroke-width:0.133333" />
    <path
       id="path86"
       d="m 82.208007,110.24798 c 0,0 2.41642,-5.41617 3.13292,-5.4334 0.71666,-0.0157 4.06963,0.47965 5.39285,0.42468 0,0 -1.25993,1.72028 -4.84604,1.29907 0,0 -1.00725,0.11216 -1.9686,1.68369 -0.9334,1.52571 -1.62781,1.9756 -1.71113,2.02596"
       style="fill:#d3d3d3;fill-opacity:1;fill-rule:nonzero;stroke:none;stroke-width:0.133333" />
  </g>
  <g
     id="g11"
     inkscape:label="Bishop (white)"
     transform="translate(-71.77178,-12.967522)">
    <path
       id="path87"
       d="m 178.13892,130.1557 c 0,0.18889 -0.15452,0.34226 -0.34218,0.34226 h -35.5955 c -0.18774,0 -0.34226,-0.15337 -0.34226,-0.34226 v -2.2399 c 0,-4.1686 3.39145,-7.55997 7.56113,-7.55997 h 0.0371 c 3.34101,-0.31251 6.74046,-0.47956 10.09754,-0.49332 3.65576,-0.0124 7.34933,0.15106 10.98687,0.49332 h 0.0363 c 4.16976,0 7.56113,3.39137 7.56113,7.55997 z m -31.63515,-28.776 0.0181,-0.0836 c 0.69935,-6.049103 8.36004,-12.943923 9.88921,-14.265003 l 0.0503,-0.40209 c -0.70273,-0.79627 -1.09197,-1.82223 -1.09197,-2.88486 0,-2.40456 1.95615,-4.36261 4.3598,-4.36261 2.40473,0 4.3631,1.95805 4.3631,4.36261 0,1.79355 -1.1251,3.43052 -2.80195,4.0702 l -0.14076,0.10442 c -3.54474,5.64454 -3.73594,17.818313 -3.74393,18.333393 l -0.008,0.40407 5.95186,-0.0313 -0.008,-0.38684 c -0.10986,-9.547023 2.40942,-14.818983 3.24261,-16.246783 8.92094,9.77984 8.09797,14.699233 8.08767,14.742753 l -0.008,0.0445 v 0.047 c 0.19688,7.52223 -3.34448,12.62136 -5.07968,14.65762 -3.33187,-0.28276 -6.70264,-0.41783 -10.03912,-0.40753 -2.94964,0.0124 -5.92895,0.14884 -8.87628,0.39146 -7.3471,-8.44015 -4.20635,-17.99402 -4.17198,-18.08789 z m 24.09232,18.19205 c -0.0181,0 -0.0387,0 -0.0569,-0.008 1.88173,-2.3453 5.09344,-7.43635 4.91601,-14.7228 0.0962,-0.59288 0.59972,-5.788183 -8.63703,-15.761213 l -0.32397,-0.34976 -0.28152,0.38635 c -0.15114,0.21148 -3.69934,5.37868 -3.65014,16.739863 h -4.36195 c 0.0651,-2.16671 0.52991,-12.426783 3.52991,-17.379873 1.88741,-0.79628 3.14528,-2.67339 3.14528,-4.7333 0,-2.83789 -2.30748,-5.14586 -5.14602,-5.14586 -2.83517,0 -5.14264,2.30797 -5.14264,5.14586 0,1.08084 0.34217,2.1251 0.96604,2.99455 -2.51928,2.22704 -9.10176,8.55066 -9.80342,14.430403 -0.22779,0.71535 -2.96332,9.99338 3.96488,18.37633 -0.10417,0.0115 -0.20834,0.0157 -0.31251,0.0264 -4.59319,0.0107 -8.32567,3.74971 -8.32567,8.34406 v 2.23989 c 0,0.62156 0.50354,1.12519 1.1251,1.12519 h 35.5955 c 0.62148,0 1.1251,-0.50363 1.1251,-1.12519 v -2.23989 c 0,-4.59435 -3.73363,-8.33375 -8.32575,-8.34406"
       style="fill:#000000;fill-opacity:1;fill-rule:nonzero;stroke:none;stroke-width:0.133333" />
    <path
       id="path88"
       d="m 178.13892,127.9158 v 2.2399 c 0,0.18889 -0.15452,0.34226 -0.34218,0.34226 h -35.5955 c -0.18774,0 -0.34226,-0.15337 -0.34226,-0.34226 v -2.2399 c 0,-4.1686 3.39145,-7.55997 7.56113,-7.55997 h 0.0371 c 3.34101,-0.31251 6.74046,-0.47956 10.09754,-0.49332 3.65576,-0.0124 7.34933,0.15106 10.98687,0.49332 h 0.0363 c 4.16976,0 7.56113,3.39137 7.56113,7.55997"
       style="fill:#f8f8f8;fill-opacity:1;fill-rule:nonzero;stroke:none;stroke-width:0.133333" />
    <path
       id="path89"
       d="m 174.67082,104.77914 v 0.047 c 0.19689,7.52223 -3.34447,12.62136 -5.07968,14.65762 -3.33186,-0.28276 -6.70263,-0.41784 -10.03911,-0.40754 -2.94964,0.0124 -5.92895,0.14884 -8.87628,0.39147 -7.3471,-8.44015 -4.20635,-17.99402 -4.17198,-18.08789 l 0.0181,-0.0836 c 0.69935,-6.049103 8.36004,-12.943923 9.88921,-14.265003 l 0.0503,-0.40209 c -0.70273,-0.79627 -1.09197,-1.82223 -1.09197,-2.88486 0,-2.40456 1.95615,-4.3626 4.3598,-4.3626 2.40473,0 4.3631,1.95804 4.3631,4.3626 0,1.79355 -1.1251,3.43052 -2.80195,4.07021 l -0.14076,0.10441 c -3.54474,5.64454 -3.73594,17.818313 -3.74393,18.333393 l -0.008,0.40407 5.95186,-0.0313 -0.008,-0.38685 c -0.10986,-9.547023 2.40942,-14.818983 3.24261,-16.246783 8.92094,9.77985 8.09797,14.699233 8.08767,14.742753 l -0.008,0.0445"
       style="fill:#f8f8f8;fill-opacity:1;fill-rule:nonzero;stroke:none;stroke-width:0.133333" />
    <path
       id="path90"
       d="m 170.71971,95.077587 c 0.5014,0.87564 3.75085,6.778293 1.32206,13.858713 -2.44832,7.13645 -8.71722,9.79188 -9.64428,10.16619 l 7.19365,0.38116 c 0,0 2.62798,-2.94733 3.93744,-7.01407 1.17084,-3.63861 1.53255,-8.42416 0.75886,-10.54851 -0.85734,-2.355533 -1.39072,-3.722173 -3.56773,-6.843483"
       style="fill:#d3d3d3;fill-opacity:1;fill-rule:nonzero;stroke:none;stroke-width:0.133333" />
    <path
       id="path91"
       d="m 177.33432,124.53012 c -0.69482,-0.26669 -1.45936,-0.53568 -2.27088,-0.81729 -3.26891,-1.13078 -18.33051,-0.73364 -26.06454,-0.46695 -3.21855,0.1087 -5.3303,1.05414 -6.6958,2.11636 1.04961,-2.91527 3.84242,-5.00641 7.11701,-5.00641 h 0.0371 c 3.34101,-0.31251 6.74046,-0.47956 10.09754,-0.49332 3.65576,-0.0124 7.34933,0.15106 10.98687,0.49332 h 0.0363 c 2.95302,0 5.51696,1.70199 6.75654,4.17429"
       style="fill:#ffffff;fill-opacity:1;fill-rule:nonzero;stroke:none;stroke-width:0.133333" />
    <path
       id="path92"
       d="m 161.56652,79.788687 c 0,0 2.4494,2.36517 1.00948,5.06205 -1.44099,2.69696 -4.58866,3.83903 -5.78818,8.37149 -1.19952,4.53255 -0.65584,6.21056 0.61348,13.434033 l 0.36517,-5.9713 c 0,0 0.70966,-5.979303 1.64479,-8.779033 1.0061,-2.63391 1.59782,-3.95293 1.97898,-4.13193 0.51393,-0.15131 1.49827,-0.79058 1.99612,-1.664 0.52308,-0.84267 0.8379,-1.75844 0.68906,-2.74508 -0.17744,-1.18049 -0.54137,-2.57244 -2.5089,-3.57623"
       style="fill:#d3d3d3;fill-opacity:1;fill-rule:nonzero;stroke:none;stroke-width:0.133333" />
  </g>
  <g
     id="g7"
     inkscape:label="King (white)"
     transform="translate(-77.911004,-13.122852)">
    <path
       id="path93"
       d="m 284.68506,111.34794 c 0,0.21971 -0.18081,0.39715 -0.39945,0.39715 h -0.54022 c -1.18007,0 -2.29264,-0.46011 -3.13622,-1.298 -1.52456,-1.50626 -4.05413,-4.44329 -3.8561,-7.16852 0.0363,-0.52307 0.38347,-1.04961 0.94998,-1.44445 0.45442,-0.31366 1.18583,-0.65015 2.22967,-0.65015 1.09997,0 2.54903,0.37316 4.38948,1.54062 0.24724,0.15683 0.40176,0.43836 0.39945,0.73595 z m 0.0552,-9.28603 c -3.96835,-2.514653 -6.39136,-1.62419 -7.48333,-0.86995 -0.76232,0.53 -1.22927,1.26941 -1.28655,2.02826 -0.20603,2.88775 2.10952,5.82824 4.08619,7.78315 0.99118,0.98434 2.30179,1.52464 3.68905,1.52464 h 0.54021 c 0.64785,0 1.17776,-0.52769 1.18238,-1.17438 l 0.0363,-7.88732 c 0,-0.56428 -0.2896,-1.10227 -0.76454,-1.4044"
       style="fill:#000000;fill-opacity:1;fill-rule:nonzero;stroke:none;stroke-width:0.133333" />
    <path
       id="path94"
       d="m 299.44907,110.44709 v 0 c -0.84358,0.83789 -1.95837,1.298 -3.13844,1.298 h -0.53799 c -0.21972,0 -0.39946,-0.17744 -0.39946,-0.39715 l -0.0363,-7.8874 c 0,-0.29759 0.15106,-0.57912 0.39715,-0.73595 1.84275,-1.16746 3.29181,-1.54062 4.39062,-1.54062 1.045,0 1.77295,0.33649 2.22737,0.65015 0.56659,0.39484 0.91685,0.92138 0.95344,1.44445 0.19804,2.72523 -2.33154,5.66226 -3.85379,7.16852 z m 4.63671,-7.22687 c -0.0569,-0.75885 -0.5276,-1.49826 -1.29223,-2.02826 -1.08851,-0.75424 -3.507,-1.644703 -7.47987,0.86995 -0.47503,0.30213 -0.7657,0.83781 -0.76232,1.4044 l 0.0363,7.88732 c 0,0.64669 0.53453,1.17438 1.18238,1.17438 h 0.53791 c 0.69474,0 1.3678,-0.13507 1.99389,-0.39377 0.62725,-0.25638 1.20183,-0.63754 1.69738,-1.12856 1.97906,-1.95722 4.29222,-4.89771 4.08619,-7.78546"
       style="fill:#000000;fill-opacity:1;fill-rule:nonzero;stroke:none;stroke-width:0.133333" />
    <path
       id="path95"
       d="m 310.31463,112.2361 -7.36771,7.91024 c -0.11447,-0.0305 -0.23694,-0.0552 -0.35479,-0.0836 -0.0783,-0.0181 -0.15337,-0.0363 -0.2324,-0.0528 -0.24493,-0.0511 -0.49333,-0.0961 -0.74971,-0.13276 -0.48525,-0.0701 -0.97058,-0.13508 -1.45591,-0.19573 -0.0709,-0.008 -0.14076,-0.0157 -0.20941,-0.0231 -0.42236,-0.0527 -0.84358,-0.10186 -1.26594,-0.14653 -0.0305,0 -0.061,-0.008 -0.0916,-0.008 -2.41733,-0.25292 -4.85305,-0.39945 -7.28183,-0.43835 -0.10879,0 -0.21865,0 -0.3285,0 -0.31589,0 -0.63409,-0.008 -0.95344,-0.008 h -0.2427 c -4.03353,0.0124 -7.65953,0.41206 -10.86094,0.76454 l -0.48764,0.0552 c -0.24831,0.0288 -0.49332,0.0651 -0.73133,0.10985 -0.0775,0.0124 -0.15337,0.0305 -0.2301,0.047 -0.11669,0.0231 -0.23463,0.0437 -0.34679,0.0733 l -7.28645,-7.86902 c -7.40664,-9.20362 -1.76034,-15.654473 -1.51656,-15.923473 l 0.0181,-0.0206 c 5.31777,-6.77533 13.97194,-3.71757 16.49922,-2.61876 0.28729,0.12247 0.61348,0.11439 0.89277,-0.0264 0.28046,-0.13846 0.48303,-0.39377 0.55629,-0.69936 l 0.99233,-4.13316 h -4.19258 v -5.5271 h 4.26585 v -4.53269 h 5.44361 v 4.53238 h 4.26594 v 5.5271 h -4.19267 l 0.99241,4.13316 c 0.0717,0.30559 0.27584,0.5609 0.55505,0.69936 0.2793,0.14076 0.60664,0.14884 0.89278,0.0264 2.52727,-1.09881 11.18268,-4.15657 16.50037,2.61876 l 0.0181,0.0206 c 0.24262,0.269 5.88996,6.719853 -1.51434,15.923473 z m -1.99159,15.18407 v 2.4906 c 0,0.40976 -0.33188,0.74172 -0.74172,0.74172 h -35.13077 c -0.40976,0 -0.74164,-0.33196 -0.74164,-0.74172 v -2.4906 c 0,-3.12468 2.06593,-5.61651 5.38865,-6.50121 0.44643,-0.12024 0.92484,-0.20834 1.42047,-0.26554 l 0.4887,-0.0527 c 3.17974,-0.35256 6.78513,-0.74971 10.77746,-0.76232 h 0.23924 c 3.83319,0 7.69159,0.27353 11.47789,0.81152 0.51161,0.0758 1.00263,0.18081 1.4639,0.31358 3.35477,0.96373 5.35782,3.37884 5.35782,6.45663 z m 4.0988,-31.621473 c -5.66572,-7.2037 -14.76863,-4.00031 -17.42405,-2.84662 -0.10186,0.0445 -0.18889,0.0157 -0.2301,-0.008 -0.0412,-0.0214 -0.11785,-0.0734 -0.14307,-0.18312 l -0.76223,-3.16688 h 3.98309 v -7.09376 h -4.26585 v -4.53237 h -7.00946 v 4.53237 h -4.26585 v 7.09352 h 3.98318 l -0.76232,3.16688 c -0.0264,0.10986 -0.10187,0.16136 -0.14307,0.18312 -0.042,0.0206 -0.12815,0.0494 -0.23002,0.008 -2.65773,-1.15369 -11.75841,-4.35708 -17.42405,2.84662 -0.30789,0.3571 -6.17967,7.396313 1.50626,16.938723 l 7.04951,7.61033 c -3.32156,1.11488 -5.35782,3.77261 -5.35782,7.07242 v 2.4906 c 0,0.8402 0.68444,1.52464 1.52456,1.52464 h 35.13077 c 0.84127,0 1.52464,-0.68444 1.52464,-1.52464 v -2.4906 c 0,-3.2586 -1.97898,-5.84307 -5.32807,-7.01514 l 7.11931,-7.647 0.0181,-0.0206 c 7.68582,-9.54241 1.81416,-16.583933 1.50626,-16.938723"
       style="fill:#000000;fill-opacity:1;fill-rule:nonzero;stroke:none;stroke-width:0.133333" />
    <path
       id="path96"
       d="m 308.32304,127.42017 v 2.4906 c 0,0.40976 -0.33188,0.74172 -0.74172,0.74172 h -35.13077 c -0.40976,0 -0.74164,-0.33196 -0.74164,-0.74172 v -2.4906 c 0,-3.12468 2.06593,-5.61651 5.38865,-6.50121 0.44643,-0.12024 0.92484,-0.20834 1.42047,-0.26554 l 0.4887,-0.0527 c 3.17974,-0.35256 6.78513,-0.74971 10.77746,-0.76232 h 0.23924 c 3.83319,0 7.69159,0.27353 11.47789,0.81152 0.51161,0.0758 1.00263,0.18081 1.4639,0.31358 3.35477,0.96373 5.35782,3.37884 5.35782,6.45663"
       style="fill:#f8f8f8;fill-opacity:1;fill-rule:nonzero;stroke:none;stroke-width:0.133333" />
    <path
       id="path97"
       d="m 299.99959,111.00568 c -0.49555,0.49102 -1.07013,0.87218 -1.69738,1.12856 -0.62609,0.2587 -1.29915,0.39377 -1.99389,0.39377 h -0.53791 c -0.64785,0 -1.18007,-0.52769 -1.18238,-1.17438 l -0.0363,-7.88732 c 0,-0.56659 0.28729,-1.10227 0.76232,-1.4044 3.97288,-2.514653 6.39136,-1.62419 7.47987,-0.86995 0.76463,0.53 1.23504,1.26941 1.29223,2.02826 0.20604,2.88775 -2.10713,5.82824 -4.08619,7.78546 z m -14.53161,0.34795 c -0.008,0.64669 -0.53453,1.17438 -1.18237,1.17438 h -0.54022 c -1.38726,0 -2.69787,-0.5403 -3.68905,-1.52464 -1.97667,-1.95491 -4.29222,-4.8954 -4.08619,-7.78315 0.0577,-0.75885 0.52423,-1.49826 1.28655,-2.02826 1.09197,-0.75424 3.51499,-1.644703 7.48333,0.86995 0.47495,0.30213 0.76685,0.84012 0.76454,1.4044 z m 26.36098,-15.040993 -0.0181,-0.0206 c -5.31769,-6.77541 -13.97309,-3.71765 -16.50037,-2.61884 -0.28613,0.12247 -0.61348,0.11447 -0.89277,-0.0264 -0.27922,-0.13854 -0.48303,-0.39377 -0.55505,-0.69936 l -0.99242,-4.13324 h 4.19267 v -5.5271 h -4.26593 v -4.5323 h -5.44362 v 4.5323 h -4.26585 v 5.5271 h 4.19259 l -0.99234,4.13324 c -0.0733,0.30559 -0.27583,0.56082 -0.55628,0.69936 -0.2793,0.14076 -0.60549,0.14876 -0.89278,0.0264 -2.52727,-1.09881 -11.18144,-4.15657 -16.49922,2.61884 l -0.0181,0.0206 c -0.24377,0.26899 -5.89007,6.719853 1.51657,15.923463 l 7.28644,7.86903 c 0.11217,-0.0297 0.2301,-0.0503 0.3468,-0.0734 0.0766,-0.0157 0.15221,-0.0346 0.23009,-0.047 0.23801,-0.0445 0.48302,-0.0816 0.73133,-0.10994 l 0.48764,-0.0552 c 3.20141,-0.35256 6.82741,-0.75202 10.86094,-0.76463 h 0.24271 c 0.31935,0 0.63754,0.008 0.95343,0.008 0.10986,0 0.21971,0 0.3285,0 2.42879,0.0387 4.8645,0.18542 7.28183,0.43843 0.0305,0 0.061,0.008 0.0916,0.008 0.42237,0.0445 0.84358,0.0939 1.26594,0.14653 0.0684,0.008 0.13846,0.0148 0.20942,0.0231 0.48532,0.061 0.97065,0.12593 1.4559,0.19573 0.25639,0.0363 0.50478,0.0816 0.74971,0.13277 0.0791,0.0157 0.15452,0.0346 0.2324,0.0527 0.11785,0.0289 0.24032,0.0528 0.35479,0.0836 l 7.36771,-7.91023 c 7.4043,-9.20362 1.75696,-15.654563 1.51433,-15.923473"
       style="fill:#f8f8f8;fill-opacity:1;fill-rule:nonzero;stroke:none;stroke-width:0.133333" />
    <path
       id="path98"
       d="m 310.65689,95.019237 c 0,0 4.58973,5.543253 0.70042,12.362673 -1.62641,2.8523 -3.97856,5.69085 -6.53212,7.82097 -2.73899,2.28457 -5.50089,4.38033 -5.50089,4.38033 l 3.62262,0.56313 6.52644,-7.00716 c 0,0 4.31052,-4.50279 4.6058,-9.35014 0.2999,-4.939983 -2.2319,-7.785463 -3.42227,-8.769803"
       style="fill:#d3d3d3;fill-opacity:1;fill-rule:nonzero;stroke:none;stroke-width:0.133333" />
    <path
       id="path99"
       d="m 307.59739,124.43856 c -5.10143,-1.42277 -15.52633,-1.34152 -24.51015,-1.23273 -6.43372,0.0816 -9.64659,1.53601 -11.22158,2.76528 0.53799,-2.4334 2.4414,-4.30821 5.2319,-5.05215 0.44643,-0.12024 0.92484,-0.20834 1.42047,-0.26554 l 0.4887,-0.0527 c 3.17974,-0.35256 6.78513,-0.74971 10.77746,-0.76232 h 0.23924 c 3.83319,0 7.69159,0.27353 11.47789,0.81152 0.51161,0.0758 1.00263,0.18081 1.4639,0.31358 2.16786,0.62156 3.7703,1.85083 4.63217,3.47502"
       style="fill:#ffffff;fill-opacity:1;fill-rule:nonzero;stroke:none;stroke-width:0.133333" />
  </g>
  <metadata
     id="metadata1">
    <rdf:RDF>
      <cc:Work
         rdf:about="">
        <dc:creator>
          <cc:Agent>
            <dc:title>PITIPORN AUNGPRAPHAPORNCHAI</dc:title>
          </cc:Agent>
        </dc:creator>
        <dc:source>https://www.vecteezy.com/vector-art/49089132-chess-pieces-king-queen-bishop-knight-rook-and-pawn-and-bishop-success-strategy</dc:source>
        <dc:title>Chess pieces. King, Queen, bishop, knight, rook and pawn and bishop</dc:title>
      </cc:Work>
    </rdf:RDF>
  </metadata>
</svg>
