<?xml version="1.0" encoding="UTF-8" standalone="no"?>
<!-- Created with Inkscape (http://www.inkscape.org/) -->

<svg
   version="1.1"
   id="svg1"
   width="600.02667"
   height="602.84534"
   viewBox="0 0 600.02667 602.84535"
   sodipodi:docname="queen-white.svg"
   inkscape:version="1.4.2 (1:1.4.2+202505120737+ebf0e940d0)"
   xmlns:inkscape="http://www.inkscape.org/namespaces/inkscape"
   xmlns:sodipodi="http://sodipodi.sourceforge.net/DTD/sodipodi-0.dtd"
   xmlns="http://www.w3.org/2000/svg"
   xmlns:svg="http://www.w3.org/2000/svg">
  <defs
     id="defs1" />
  <sodipodi:namedview
     id="namedview1"
     pagecolor="#ffffff"
     bordercolor="#000000"
     borderopacity="0.25"
     inkscape:showpageshadow="2"
     inkscape:pageopacity="0.0"
     inkscape:pagecheckerboard="0"
     inkscape:deskcolor="#d1d1d1"
     inkscape:zoom="0.18321"
     inkscape:cx="-603.13302"
     inkscape:cy="120.08078"
     inkscape:window-width="1704"
     inkscape:window-height="996"
     inkscape:window-x="0"
     inkscape:window-y="0"
     inkscape:window-maximized="1"
     inkscape:current-layer="svg1">
    <inkscape:page
       x="7.5074613e-06"
       y="9.8298187e-07"
       inkscape:label="1"
       id="page1"
       width="600.02667"
       height="602.84534"
       margin="0"
       bleed="0" />
  </sodipodi:namedview>
  <path
     id="path71"
     d="m 540.10672,245.28533 -3.58667,2.85333 -88.93333,223.78667 c -0.76,-0.25334 -1.49333,-0.46667 -2.21333,-0.70667 -41.28,-12.44 -94.8,-14.17333 -146.53333,-14.17333 -55.26667,0 -117.42666,5.72 -143.42666,12.96 L 68.826733,247.872 64.813399,244.952 C 33.5734,243.21866 9.1200674,217.29867 9.1200674,185.97867 c 0,-32.6 26.5199996,-59.12534 59.0933316,-59.12534 32.600001,0 59.120001,26.52534 59.120001,59.12534 0,11.61333 -3.33334,22.81333 -9.69334,32.38666 l 0.45334,5.62667 64.26666,69.25333 c 1.02667,1.12 2.45334,1.70667 3.92,1.70667 0.64,0 1.28,-0.0933 1.92,-0.33334 2.04,-0.76 3.4,-2.68 3.46667,-4.86666 l 4.10667,-162.32 -2.86667,-4.35067 c -22.50667,-9.032 -37.04,-30.594661 -37.04,-54.865327 0,-32.572 26.52,-59.0919989 59.09333,-59.0919989 32.6,0 59.12,26.5199989 59.12,59.0919989 0,17.549333 -7.72,34.062667 -21.2,45.346667 l -1.42667,4.896 43.85334,134.91999 c 0.70666,2.21334 2.74666,3.70667 5.08,3.70667 2.32,0 4.38666,-1.46667 5.08,-3.68 l 44.68,-135.524 -1.33334,-4.89733 c -13.08,-11.22133 -20.56,-27.522664 -20.56,-44.767997 0,-32.572 26.52,-59.0919989 59.09333,-59.0919989 32.6,0 59.12,26.5199989 59.12,59.0919989 0,25.303999 -16.09333,47.809327 -40,55.959997 l -3.09333,4.56267 8.84,156.43999 c 0.13333,2.22667 1.56,4.08 3.62667,4.78667 0.57333,0.21333 1.16,0.29333 1.73333,0.29333 1.52,0 3.01333,-0.66666 4.08,-1.88 l 57.81333,-67.94666 0.52,-5.13333 c -4.78666,-8.66667 -7.30666,-18.56 -7.30666,-28.53334 0,-32.6 26.52,-59.12 59.09333,-59.12 32.6,0 59.12,26.52 59.12,59.12 0,29.29334 -21.82667,54.46667 -50.78667,58.52 z M 531.77339,118.52 c -37.62667,0 -68.21333,30.632 -68.21333,68.24533 0,10.46667 2.42666,20.77334 6.98666,30.08 l -49.74666,58.45333 -8.12,-143.73333 c 25.78666,-10.308 42.90666,-35.307995 42.90666,-63.349327 0,-37.619999 -30.62666,-68.2159986840311 -68.24,-68.2159986840311 -37.62666,0 -68.22666,30.5959996840311 -68.22666,68.2159986840311 0,18.855999 7.78667,36.769337 21.44,49.634667 l -40.13333,121.76799 -39.36,-121.12933 C 275.17339,105.564 283.20006,87.437335 283.20006,68.216003 283.20006,30.596004 252.58673,4.3159689e-6 214.96006,4.3159689e-6 177.3334,4.3159689e-6 146.74673,30.596004 146.74673,68.216003 c 0,26.946666 15.53333,50.942667 39.84,62.015997 l -3.84,150.02666 -55.62667,-59.94666 c 6.12,-10.37333 9.34667,-22.13333 9.34667,-34.33333 0,-37.62667 -30.62666,-68.24934 -68.253331,-68.24934 -37.613332,0 -68.213331331116,30.62267 -68.213331331116,68.24934 0,35.16 26.706666331116,64.31999 61.306665331116,67.78666 l 85.399997,219.09333 c -30.58667,11.01333 -68.306664,30.66667 -68.306664,73.38666 v 56.6 H 519.28005 v -56.6 c 0,-41.83999 -31.66666,-60.54666 -63.02666,-71.46666 L 544.06672,253.832 c 32.08,-5.84 55.96,-34.16 55.96,-67.06667 0,-37.61333 -30.62667,-68.24533 -68.25333,-68.24533 z m -22.90667,414.92532 c 0.85333,4.05334 1.28,8.30667 1.28,12.8 v 47.48 H 87.533399 v -47.48 c 0,-29.68 21.160001,-50.75999 66.626661,-66.31999 21.74667,-7.45334 87.98667,-13.74667 144.68,-13.74667 51.02667,0 103.77333,1.66667 143.88,13.8 40.02666,12.08 61.01333,28.86666 66.14666,53.46666"
     style="fill:#231f20;fill-opacity:1;fill-rule:nonzero;stroke:none;stroke-width:0.133333" />
  <path
     id="path72"
     d="m 590.89339,186.76533 c 0,29.29334 -21.82667,54.46667 -50.78667,58.52 l -3.58667,2.85333 -88.93333,223.78667 c -0.76,-0.25334 -1.49333,-0.46667 -2.21333,-0.70667 -41.28,-12.44 -94.8,-14.17333 -146.53333,-14.17333 -55.26667,0 -117.42666,5.72 -143.42666,12.96 L 68.826733,247.872 64.813399,244.952 C 33.5734,243.21866 9.1200674,217.29867 9.1200674,185.97867 c 0,-32.6 26.5199996,-59.12534 59.0933316,-59.12534 32.600001,0 59.120001,26.52534 59.120001,59.12534 0,11.61333 -3.33334,22.81333 -9.69334,32.38666 l 0.45334,5.62667 64.26666,69.25333 c 1.02667,1.12 2.45334,1.70667 3.92,1.70667 0.64,0 1.28,-0.0933 1.92,-0.33334 2.04,-0.76 3.4,-2.68 3.46667,-4.86666 l 4.10667,-162.32 -2.86667,-4.35067 c -22.50667,-9.032 -37.04,-30.594661 -37.04,-54.865327 0,-32.572 26.52,-59.0919989 59.09333,-59.0919989 32.6,0 59.12,26.5199989 59.12,59.0919989 0,17.549333 -7.72,34.062667 -21.2,45.346667 l -1.42667,4.896 43.85334,134.91999 c 0.70666,2.21334 2.74666,3.70667 5.08,3.70667 2.32,0 4.38666,-1.46667 5.08,-3.68 l 44.68,-135.524 -1.33334,-4.89733 c -13.08,-11.22133 -20.56,-27.522664 -20.56,-44.767997 0,-32.572 26.52,-59.0919989 59.09333,-59.0919989 32.6,0 59.12,26.5199989 59.12,59.0919989 0,25.303999 -16.09333,47.809327 -40,55.959997 l -3.09333,4.56267 8.84,156.43999 c 0.13333,2.22667 1.56,4.08 3.62667,4.78667 0.57333,0.21333 1.16,0.29333 1.73333,0.29333 1.52,0 3.01333,-0.66666 4.08,-1.88 l 57.81333,-67.94666 0.52,-5.13333 c -4.78666,-8.66667 -7.30666,-18.56 -7.30666,-28.53334 0,-32.6 26.52,-59.12 59.09333,-59.12 32.6,0 59.12,26.52 59.12,59.12"
     style="fill:#f8f8f8;fill-opacity:1;fill-rule:nonzero;stroke:none;stroke-width:0.133333" />
  <path
     id="path73"
     d="m 508.86672,533.44532 c -10.4,-22.13333 -64.8,-26 -150.99999,-29.10666 -86.18667,-3.09333 -178.61333,3.86666 -218.21333,6.21333 -39.6,2.33333 -52.120001,35.69333 -52.120001,35.69333 0,-29.68 21.160001,-50.75999 66.626661,-66.31999 21.74667,-7.45334 87.98667,-13.74667 144.68,-13.74667 51.02667,0 103.77333,1.66667 143.88,13.8 40.02666,12.08 61.01333,28.86666 66.14666,53.46666"
     style="fill:#ffffff;fill-opacity:1;fill-rule:nonzero;stroke:none;stroke-width:0.133333" />
  <path
     id="path74"
     d="m 571.37339,142.89867 c 0,0 15.44,64.37333 -44.24,78.01333 0,0 -6.98667,1.54667 -10.48,11.64 -3.49334,10.09333 -46.97333,92.4 -105.98667,160.73333 -59.01333,68.33333 -99.39999,63.81333 -99.39999,63.81333 0,0 57.14666,-3.24 136.31999,14.81333 l 88.92,-223.78666 c 0,0 2.78667,-2.12 3.6,-2.82667 0.81333,-0.70666 40.88,-2.74666 50.2,-50.19999 0,0 6.65333,-26.93334 -18.93333,-52.2"
     style="fill:#d3d3d3;fill-opacity:1;fill-rule:nonzero;stroke:none;stroke-width:0.133333" />
  <path
     id="path75"
     d="M 510.14672,593.72532 H 87.533399 v -47.48 c 0,0 12.520001,-33.36 52.120001,-35.69333 39.6,-2.34667 132.02666,-9.30666 218.21333,-6.21333 86.19999,3.10666 140.59999,6.97333 150.99999,29.10666 l 1.28,60.28"
     style="fill:#f8f8f8;fill-opacity:1;fill-rule:nonzero;stroke:none;stroke-width:0.133333" />
  <path
     id="path76"
     d="m 104.20007,139.112 c 0,0 12.15999,23.04 -2.06667,46.85333 -13.813335,23.10667 0.52,42.18667 9.32,49.96 8.8,7.76 32.88,16.34667 32.88,16.34667 l -26.24,-28.28 -0.45334,-5.62667 c 0,0 9.96,-12.2 9.65334,-34.72 -0.32,-22.53333 -15.38667,-39.22666 -23.09333,-44.53333"
     style="fill:#d3d3d3;fill-opacity:1;fill-rule:nonzero;stroke:none;stroke-width:0.133333" />
  <path
     id="path77"
     d="m 257.12006,26.840004 c 0,0 4.13333,40.345332 -17.68,62.211998 -28.38666,28.462668 37.46667,107.713328 37.46667,107.713328 l -25.45334,-78.30666 1.42667,-4.896 c 0,0 8.78667,-6.91734 14.96,-18.906668 8.56,-16.608 12.94667,-42.373332 -10.72,-67.815998"
     style="fill:#d3d3d3;fill-opacity:1;fill-rule:nonzero;stroke:none;stroke-width:0.133333" />
  <path
     id="path78"
     d="m 432.58672,30.241337 c 0,0 5.77334,44.681332 -32.01333,58.658665 -37.8,13.977338 7.66667,125.878668 7.66667,125.878668 l -4.86667,-86.04 3.09333,-4.56267 c 0,0 22.73334,-6.2 34.81334,-31.802665 12.09333,-25.603999 0.04,-50.903998 -8.69334,-62.131998"
     style="fill:#d3d3d3;fill-opacity:1;fill-rule:nonzero;stroke:none;stroke-width:0.133333" />
</svg>
